<svg xmlns="http://www.w3.org/2000/svg" xmlns:xlink="http://www.w3.org/1999/xlink" width="500" zoomAndPan="magnify" viewBox="0 0 375 374.999991" height="500" preserveAspectRatio="xMidYMid meet" version="1.0"><defs><clipPath id="806e04de54"><path d="M 0 0 L 2 0 L 2 168 L 0 168 Z M 0 0 " clip-rule="nonzero"/></clipPath><clipPath id="2cffb92a15"><path d="M -43.058594 224.804688 L 186.09375 -73.925781 L 454.476562 131.945312 L 225.324219 430.679688 Z M -43.058594 224.804688 " clip-rule="nonzero"/></clipPath><clipPath id="d08120c73f"><path d="M -424.292969 97.480469 L 84.226562 -565.445312 L 684.070312 -105.308594 L 175.550781 557.613281 Z M -424.292969 97.480469 " clip-rule="nonzero"/></clipPath><clipPath id="9648041d33"><path d="M -424.292969 97.480469 L 84.226562 -565.445312 L 684.070312 -105.308594 L 175.550781 557.613281 Z M -424.292969 97.480469 " clip-rule="nonzero"/></clipPath><clipPath id="bbe9187eb7"><path d="M 0 0 L 7 0 L 7 173 L 0 173 Z M 0 0 " clip-rule="nonzero"/></clipPath><clipPath id="dea13a3fa3"><path d="M -43.058594 224.804688 L 186.09375 -73.925781 L 454.476562 131.945312 L 225.324219 430.679688 Z M -43.058594 224.804688 " clip-rule="nonzero"/></clipPath><clipPath id="96f0a7972e"><path d="M -424.292969 97.480469 L 84.226562 -565.445312 L 684.070312 -105.308594 L 175.550781 557.613281 Z M -424.292969 97.480469 " clip-rule="nonzero"/></clipPath><clipPath id="318b230cfd"><path d="M -424.292969 97.480469 L 84.226562 -565.445312 L 684.070312 -105.308594 L 175.550781 557.613281 Z M -424.292969 97.480469 " clip-rule="nonzero"/></clipPath><clipPath id="13a08f6b56"><path d="M 145 319 L 262 319 L 262 361 L 145 361 Z M 145 319 " clip-rule="nonzero"/></clipPath><clipPath id="fbdfa2555c"><path d="M -43.058594 224.804688 L 186.09375 -73.925781 L 454.476562 131.945312 L 225.324219 430.679688 Z M -43.058594 224.804688 " clip-rule="nonzero"/></clipPath><clipPath id="3a615730c3"><path d="M -424.292969 97.480469 L 84.226562 -565.445312 L 684.070312 -105.308594 L 175.550781 557.613281 Z M -424.292969 97.480469 " clip-rule="nonzero"/></clipPath><clipPath id="cbcb968f4b"><path d="M -424.292969 97.480469 L 84.226562 -565.445312 L 684.070312 -105.308594 L 175.550781 557.613281 Z M -424.292969 97.480469 " clip-rule="nonzero"/></clipPath><clipPath id="1c7bedad1f"><path d="M 140 314 L 267 314 L 267 366 L 140 366 Z M 140 314 " clip-rule="nonzero"/></clipPath><clipPath id="60da6f3605"><path d="M -43.058594 224.804688 L 186.09375 -73.925781 L 454.476562 131.945312 L 225.324219 430.679688 Z M -43.058594 224.804688 " clip-rule="nonzero"/></clipPath><clipPath id="821a39423d"><path d="M -424.292969 97.480469 L 84.226562 -565.445312 L 684.070312 -105.308594 L 175.550781 557.613281 Z M -424.292969 97.480469 " clip-rule="nonzero"/></clipPath><clipPath id="9a1d8db4bb"><path d="M -424.292969 97.480469 L 84.226562 -565.445312 L 684.070312 -105.308594 L 175.550781 557.613281 Z M -424.292969 97.480469 " clip-rule="nonzero"/></clipPath><clipPath id="7de6409628"><path d="M 35 9 L 332 9 L 332 334 L 35 334 Z M 35 9 " clip-rule="nonzero"/></clipPath><clipPath id="07bafab220"><path d="M -43.058594 224.804688 L 186.09375 -73.925781 L 454.476562 131.945312 L 225.324219 430.679688 Z M -43.058594 224.804688 " clip-rule="nonzero"/></clipPath><clipPath id="8b39ae74ce"><path d="M -424.292969 97.480469 L 84.226562 -565.445312 L 684.070312 -105.308594 L 175.550781 557.613281 Z M -424.292969 97.480469 " clip-rule="nonzero"/></clipPath><clipPath id="544999d571"><path d="M -424.292969 97.480469 L 84.226562 -565.445312 L 684.070312 -105.308594 L 175.550781 557.613281 Z M -424.292969 97.480469 " clip-rule="nonzero"/></clipPath><clipPath id="798322c7fc"><path d="M 30 5 L 336 5 L 336 339 L 30 339 Z M 30 5 " clip-rule="nonzero"/></clipPath><clipPath id="e4af4a5675"><path d="M -43.058594 224.804688 L 186.09375 -73.925781 L 454.476562 131.945312 L 225.324219 430.679688 Z M -43.058594 224.804688 " clip-rule="nonzero"/></clipPath><clipPath id="5d13525981"><path d="M -424.292969 97.480469 L 84.226562 -565.445312 L 684.070312 -105.308594 L 175.550781 557.613281 Z M -424.292969 97.480469 " clip-rule="nonzero"/></clipPath><clipPath id="b4d4d17387"><path d="M -424.292969 97.480469 L 84.226562 -565.445312 L 684.070312 -105.308594 L 175.550781 557.613281 Z M -424.292969 97.480469 " clip-rule="nonzero"/></clipPath><clipPath id="508522c9b5"><path d="M 182 124 L 206 124 L 206 180 L 182 180 Z M 182 124 " clip-rule="nonzero"/></clipPath><clipPath id="aca6a215ae"><path d="M -43.058594 224.804688 L 186.09375 -73.925781 L 454.476562 131.945312 L 225.324219 430.679688 Z M -43.058594 224.804688 " clip-rule="nonzero"/></clipPath><clipPath id="b49c3ff7f5"><path d="M -424.292969 97.480469 L 84.226562 -565.445312 L 684.070312 -105.308594 L 175.550781 557.613281 Z M -424.292969 97.480469 " clip-rule="nonzero"/></clipPath><clipPath id="07e43e0892"><path d="M -424.292969 97.480469 L 84.226562 -565.445312 L 684.070312 -105.308594 L 175.550781 557.613281 Z M -424.292969 97.480469 " clip-rule="nonzero"/></clipPath><clipPath id="136e89de21"><path d="M 251 127 L 266 127 L 266 182 L 251 182 Z M 251 127 " clip-rule="nonzero"/></clipPath><clipPath id="71e4972aff"><path d="M -43.058594 224.804688 L 186.09375 -73.925781 L 454.476562 131.945312 L 225.324219 430.679688 Z M -43.058594 224.804688 " clip-rule="nonzero"/></clipPath><clipPath id="1e8ba39584"><path d="M -424.292969 97.480469 L 84.226562 -565.445312 L 684.070312 -105.308594 L 175.550781 557.613281 Z M -424.292969 97.480469 " clip-rule="nonzero"/></clipPath><clipPath id="606a5e457f"><path d="M -424.292969 97.480469 L 84.226562 -565.445312 L 684.070312 -105.308594 L 175.550781 557.613281 Z M -424.292969 97.480469 " clip-rule="nonzero"/></clipPath><clipPath id="5ba934f85b"><path d="M 229 260 L 251 260 L 251 312 L 229 312 Z M 229 260 " clip-rule="nonzero"/></clipPath><clipPath id="236beb6de7"><path d="M -43.058594 224.804688 L 186.09375 -73.925781 L 454.476562 131.945312 L 225.324219 430.679688 Z M -43.058594 224.804688 " clip-rule="nonzero"/></clipPath><clipPath id="c0c6c32e00"><path d="M -424.292969 97.480469 L 84.226562 -565.445312 L 684.070312 -105.308594 L 175.550781 557.613281 Z M -424.292969 97.480469 " clip-rule="nonzero"/></clipPath><clipPath id="e045f5f9c0"><path d="M -424.292969 97.480469 L 84.226562 -565.445312 L 684.070312 -105.308594 L 175.550781 557.613281 Z M -424.292969 97.480469 " clip-rule="nonzero"/></clipPath><clipPath id="06cad9101a"><path d="M 207 245 L 221 245 L 221 314 L 207 314 Z M 207 245 " clip-rule="nonzero"/></clipPath><clipPath id="6db0cd44ed"><path d="M -43.058594 224.804688 L 186.09375 -73.925781 L 454.476562 131.945312 L 225.324219 430.679688 Z M -43.058594 224.804688 " clip-rule="nonzero"/></clipPath><clipPath id="914e429558"><path d="M -424.292969 97.480469 L 84.226562 -565.445312 L 684.070312 -105.308594 L 175.550781 557.613281 Z M -424.292969 97.480469 " clip-rule="nonzero"/></clipPath><clipPath id="77e8390393"><path d="M -424.292969 97.480469 L 84.226562 -565.445312 L 684.070312 -105.308594 L 175.550781 557.613281 Z M -424.292969 97.480469 " clip-rule="nonzero"/></clipPath><clipPath id="5dc4eb4931"><path d="M 177 266 L 191 266 L 191 316 L 177 316 Z M 177 266 " clip-rule="nonzero"/></clipPath><clipPath id="32004cfb6a"><path d="M -43.058594 224.804688 L 186.09375 -73.925781 L 454.476562 131.945312 L 225.324219 430.679688 Z M -43.058594 224.804688 " clip-rule="nonzero"/></clipPath><clipPath id="3e9a914e1d"><path d="M -424.292969 97.480469 L 84.226562 -565.445312 L 684.070312 -105.308594 L 175.550781 557.613281 Z M -424.292969 97.480469 " clip-rule="nonzero"/></clipPath><clipPath id="84f2c7b82d"><path d="M -424.292969 97.480469 L 84.226562 -565.445312 L 684.070312 -105.308594 L 175.550781 557.613281 Z M -424.292969 97.480469 " clip-rule="nonzero"/></clipPath></defs><g clip-path="url(#806e04de54)"><g clip-path="url(#2cffb92a15)"><g clip-path="url(#d08120c73f)"><g clip-path="url(#9648041d33)"><path fill="#ffffff" d="M -257.238281 -33.339844 C -290.148438 -16.472656 -322.664062 42.636719 -313.769531 84.996094 C -308.984375 106.757812 -286.78125 149.0625 -267.53125 157.339844 C -234.714844 171.613281 -203.609375 170.339844 -171.03125 158.980469 C -159.496094 154.949219 -147.417969 148.582031 -138.011719 142.304688 C -103.855469 118.871094 -98.910156 79.140625 -97.535156 62.613281 C -74.488281 48.675781 -45.082031 34.675781 -16.558594 23.039062 C 26.109375 5.636719 -15.890625 -43.59375 -55.695312 -26.882812 C -74.328125 -19.058594 -90.820312 -14.707031 -132.007812 3.734375 C -114.847656 -14.835938 -91.121094 -43.066406 -72.5 -58.753906 C -41.769531 -84.640625 -90.828125 -121.699219 -127.730469 -89.261719 C -152.855469 -67.171875 -168.605469 -46.175781 -192.464844 -24.992188 C -200.277344 -28.074219 -223.066406 -50.835938 -257.242188 -33.339844 Z M -257.238281 -33.339844 " fill-opacity="1" fill-rule="nonzero"/></g></g></g></g><g clip-path="url(#bbe9187eb7)"><g clip-path="url(#dea13a3fa3)"><g clip-path="url(#96f0a7972e)"><g clip-path="url(#318b230cfd)"><path stroke-linecap="round" transform="matrix(1.183553, 2.031065, -2.031478, 1.185071, 1791.625207, -1286.666868)" fill="none" stroke-linejoin="round" d="M 21.353858 1020.999005 C 20.497313 1036.700082 35.24702 1061.29926 52.718311 1067.099801 C 61.740249 1070.00054 82.044149 1070.90019 89.211866 1065.600292 C 101.490785 1056.600119 107.69034 1044.900279 110.499532 1030.500272 C 111.490836 1025.399603 111.740197 1019.599396 111.449853 1014.79999 C 110.160705 997.235425 96.62197 986.913322 90.843811 982.870079 C 90.662655 971.419655 91.82167 957.619606 93.659829 944.649798 C 96.411325 925.249426 69.319109 930.139916 66.927305 948.34039 C 65.808322 956.860511 63.872173 963.850817 61.819815 982.929747 C 58.674533 972.650155 53.387188 957.890252 51.614335 947.691096 C 48.68948 930.859906 24.556747 940.949221 28.565709 961.45014 C 31.296956 975.409227 35.635846 985.690071 38.305384 998.990198 C 35.498293 1001.20049 22.249764 1004.699777 21.353021 1021.00044 Z M 21.353858 1020.999005 " stroke="#000000" stroke-width="4.061" stroke-opacity="1" stroke-miterlimit="4"/></g></g></g></g><g clip-path="url(#13a08f6b56)"><g clip-path="url(#fbdfa2555c)"><g clip-path="url(#3a615730c3)"><g clip-path="url(#cbcb968f4b)"><path fill="#ffffff" d="M 258.125 323.78125 C 267.269531 337.945312 257.617188 347.433594 244.457031 354.609375 C 225.839844 364.757812 179.019531 361.335938 162.777344 352.097656 C 147.867188 343.617188 141.007812 330.695312 147.695312 319.144531 " fill-opacity="1" fill-rule="nonzero"/></g></g></g></g><g clip-path="url(#1c7bedad1f)"><g clip-path="url(#60da6f3605)"><g clip-path="url(#821a39423d)"><g clip-path="url(#9a1d8db4bb)"><path stroke-linecap="round" transform="matrix(2.350304, -0.0640194, 0.06249, 2.35067, -18.76558, -2176.070713)" fill="none" stroke-linejoin="round" d="M 89.470346 1065.900131 C 93.198226 1072.0272 88.987105 1075.948927 83.310709 1078.846987 C 75.280552 1082.945542 55.41268 1080.948748 48.611421 1076.833456 C 42.367936 1073.055737 39.597593 1067.483186 42.571466 1062.650353 " stroke="#000000" stroke-width="4.061" stroke-opacity="1" stroke-miterlimit="4"/></g></g></g></g><g clip-path="url(#7de6409628)"><g clip-path="url(#07bafab220)"><g clip-path="url(#8b39ae74ce)"><g clip-path="url(#544999d571)"><path fill="#ffffff" d="M 36.855469 235.007812 C 27.839844 254.113281 60.738281 264.914062 96.636719 270.542969 C 110.578125 272.726562 139.09375 318.667969 171.820312 328.941406 C 193.113281 335.628906 240.984375 336.105469 257.503906 323.242188 C 285.785156 301.214844 299.644531 273.433594 305.335938 239.398438 C 307.355469 227.335938 307.585938 213.613281 306.605469 202.429688 C 303.390625 165.699219 333.691406 75.449219 330.925781 66.085938 C 323.253906 40.078125 293.332031 56.257812 287.457031 73.273438 C 284.613281 81.511719 256.628906 139.527344 256.164062 128.578125 C 255.023438 101.6875 256.882812 69.179688 260.394531 38.578125 C 265.648438 -7.207031 202.277344 6.023438 197.800781 48.945312 C 195.699219 69.054688 191.585938 85.597656 187.953125 130.582031 C 179.917969 106.628906 166.574219 72.273438 161.765625 48.398438 C 153.839844 9.035156 97.753906 34.289062 108.457031 82.214844 C 115.746094 114.855469 135.3125 172.21875 134.007812 229.3125 C 111.367188 211.441406 64.042969 177.375 36.851562 235.003906 Z M 36.855469 235.007812 " fill-opacity="1" fill-rule="nonzero"/></g></g></g></g><g clip-path="url(#798322c7fc)"><g clip-path="url(#e4af4a5675)"><g clip-path="url(#5d13525981)"><g clip-path="url(#b4d4d17387)"><path stroke-linecap="round" transform="matrix(2.350304, -0.0640194, 0.06249, 2.35067, -18.76558, -2176.070713)" fill="none" stroke-linejoin="round" d="M -3.603239 1025.600158 C -7.652346 1033.617551 6.212974 1038.589932 21.412258 1041.398474 C 27.315032 1042.488157 38.919734 1062.348165 52.717939 1067.094382 C 61.695464 1070.183814 82.043386 1070.940714 89.212369 1065.663782 C 101.485649 1056.627375 107.692229 1044.97797 110.496726 1030.575434 C 111.491707 1025.471017 111.744797 1019.640147 111.454336 1014.874617 C 110.502636 999.223169 124.405656 961.208507 123.335627 957.196126 C 120.367741 946.051299 107.463012 952.582855 104.772822 959.748216 C 103.470633 963.217403 90.916811 987.555966 90.842929 982.89604 C 90.661906 971.451554 91.81988 957.653924 93.658833 944.685779 C 96.410125 925.283219 69.317157 930.173736 66.92873 948.368108 C 65.807921 956.892324 63.872102 963.877157 61.819099 982.958073 C 58.673533 972.682492 53.388492 957.923377 51.613877 947.718369 C 48.68899 930.893155 24.557548 940.979225 28.566497 961.476541 C 31.296655 975.436563 38.967328 1000.048416 37.767305 1024.304019 C 28.343202 1016.444806 8.607449 1001.415102 -3.604856 1025.598452 Z M -3.603239 1025.600158 " stroke="#000000" stroke-width="4.061" stroke-opacity="1" stroke-miterlimit="4"/></g></g></g></g><g clip-path="url(#508522c9b5)"><g clip-path="url(#aca6a215ae)"><g clip-path="url(#b49c3ff7f5)"><g clip-path="url(#07e43e0892)"><path fill="#000000" d="M 182.65625 129.742188 C 190.582031 159.308594 201.417969 172.667969 205.496094 179.507812 C 200.019531 161.105469 198.144531 156.582031 193.785156 136.507812 C 193.046875 133.105469 192.746094 129.011719 193.179688 124 Z M 182.65625 129.742188 " fill-opacity="1" fill-rule="nonzero"/></g></g></g></g><g clip-path="url(#136e89de21)"><g clip-path="url(#71e4972aff)"><g clip-path="url(#1e8ba39584)"><g clip-path="url(#606a5e457f)"><path fill="#000000" d="M 251.402344 128.882812 C 252.175781 146.816406 257.414062 168.253906 264.496094 181.535156 C 263.925781 171.75 262.804688 154.945312 261.648438 140.089844 C 261.335938 136.058594 262.039062 132.386719 265.222656 127.59375 C 260.730469 128.988281 256.054688 128.746094 251.402344 128.882812 Z M 251.402344 128.882812 " fill-opacity="1" fill-rule="nonzero"/></g></g></g></g><g clip-path="url(#5ba934f85b)"><g clip-path="url(#236beb6de7)"><g clip-path="url(#c0c6c32e00)"><g clip-path="url(#e045f5f9c0)"><path stroke-linecap="round" transform="matrix(2.350304, -0.0640194, 0.06249, 2.35067, -18.76558, -2176.070713)" fill="none" stroke-linejoin="round" d="M 79.642111 1058.300779 C 83.678902 1048.62129 83.618373 1045.834532 84.836647 1040.895725 " stroke="#000000" stroke-width="4.061" stroke-opacity="1" stroke-miterlimit="4"/></g></g></g></g><g clip-path="url(#06cad9101a)"><g clip-path="url(#6db0cd44ed)"><g clip-path="url(#914e429558)"><g clip-path="url(#77e8390393)"><path stroke-linecap="round" transform="matrix(2.350304, -0.0640194, 0.06249, 2.35067, -18.76558, -2176.070713)" fill="none" stroke-linejoin="round" d="M 70.259684 1059.000765 C 71.952608 1047.524227 71.684682 1041.848666 72.115033 1034.101629 " stroke="#000000" stroke-width="4.061" stroke-opacity="1" stroke-miterlimit="4"/></g></g></g></g><g clip-path="url(#5dc4eb4931)"><g clip-path="url(#32004cfb6a)"><g clip-path="url(#3e9a914e1d)"><g clip-path="url(#84f2c7b82d)"><path stroke-linecap="round" transform="matrix(2.350304, -0.0640194, 0.06249, 2.35067, -18.76558, -2176.070713)" fill="none" stroke-linejoin="round" d="M 59.041088 1059.499523 C 59.138593 1051.519084 58.442799 1047.746218 57.992764 1042.668917 " stroke="#000000" stroke-width="4.061" stroke-opacity="1" stroke-miterlimit="4"/></g></g></g></g></svg>