<svg xmlns="http://www.w3.org/2000/svg" xmlns:xlink="http://www.w3.org/1999/xlink" width="500" zoomAndPan="magnify" viewBox="0 0 375 374.999991" height="500" preserveAspectRatio="xMidYMid meet" version="1.0"><defs><clipPath id="b4de9561b1"><path d="M 124 305 L 279 305 L 279 358 L 124 358 Z M 124 305 " clip-rule="nonzero"/></clipPath><clipPath id="af89b75269"><path d="M 330.105469 -49.519531 L 422.863281 332.378906 L 44.609375 424.25 L -48.144531 42.355469 Z M 330.105469 -49.519531 " clip-rule="nonzero"/></clipPath><clipPath id="4313f82b6b"><path d="M -343.878906 -614.417969 L -84.015625 455.476562 L 885.300781 220.042969 L 625.441406 -849.851562 Z M -343.878906 -614.417969 " clip-rule="nonzero"/></clipPath><clipPath id="f1a2abb90f"><path d="M -343.878906 -614.417969 L -84.015625 455.476562 L 885.300781 220.042969 L 625.441406 -849.851562 Z M -343.878906 -614.417969 " clip-rule="nonzero"/></clipPath><clipPath id="6ab53abe85"><path d="M 118 299 L 286 299 L 286 364 L 118 364 Z M 118 299 " clip-rule="nonzero"/></clipPath><clipPath id="23c3288c1a"><path d="M 330.105469 -49.519531 L 422.863281 332.378906 L 44.609375 424.25 L -48.144531 42.355469 Z M 330.105469 -49.519531 " clip-rule="nonzero"/></clipPath><clipPath id="2d13ad30c0"><path d="M -343.878906 -614.417969 L -84.015625 455.476562 L 885.300781 220.042969 L 625.441406 -849.851562 Z M -343.878906 -614.417969 " clip-rule="nonzero"/></clipPath><clipPath id="9f8d3ffbdb"><path d="M -343.878906 -614.417969 L -84.015625 455.476562 L 885.300781 220.042969 L 625.441406 -849.851562 Z M -343.878906 -614.417969 " clip-rule="nonzero"/></clipPath><clipPath id="f29d8d6e63"><path d="M 51 18 L 331 18 L 331 322 L 51 322 Z M 51 18 " clip-rule="nonzero"/></clipPath><clipPath id="f489525d20"><path d="M 330.105469 -49.519531 L 422.863281 332.378906 L 44.609375 424.25 L -48.144531 42.355469 Z M 330.105469 -49.519531 " clip-rule="nonzero"/></clipPath><clipPath id="c98cf67e4d"><path d="M -343.878906 -614.417969 L -84.015625 455.476562 L 885.300781 220.042969 L 625.441406 -849.851562 Z M -343.878906 -614.417969 " clip-rule="nonzero"/></clipPath><clipPath id="5bbf7341c6"><path d="M -343.878906 -614.417969 L -84.015625 455.476562 L 885.300781 220.042969 L 625.441406 -849.851562 Z M -343.878906 -614.417969 " clip-rule="nonzero"/></clipPath><clipPath id="7e318e04bc"><path d="M 45 12 L 338 12 L 338 328 L 45 328 Z M 45 12 " clip-rule="nonzero"/></clipPath><clipPath id="1809b72e2e"><path d="M 330.105469 -49.519531 L 422.863281 332.378906 L 44.609375 424.25 L -48.144531 42.355469 Z M 330.105469 -49.519531 " clip-rule="nonzero"/></clipPath><clipPath id="44e9b28ec2"><path d="M -343.878906 -614.417969 L -84.015625 455.476562 L 885.300781 220.042969 L 625.441406 -849.851562 Z M -343.878906 -614.417969 " clip-rule="nonzero"/></clipPath><clipPath id="41faf65f11"><path d="M -343.878906 -614.417969 L -84.015625 455.476562 L 885.300781 220.042969 L 625.441406 -849.851562 Z M -343.878906 -614.417969 " clip-rule="nonzero"/></clipPath><clipPath id="8230ebae1d"><path d="M 155 49 L 188 49 L 188 122 L 155 122 Z M 155 49 " clip-rule="nonzero"/></clipPath><clipPath id="a579fb7397"><path d="M 330.105469 -49.519531 L 422.863281 332.378906 L 44.609375 424.25 L -48.144531 42.355469 Z M 330.105469 -49.519531 " clip-rule="nonzero"/></clipPath><clipPath id="93b9560450"><path d="M -343.878906 -614.417969 L -84.015625 455.476562 L 885.300781 220.042969 L 625.441406 -849.851562 Z M -343.878906 -614.417969 " clip-rule="nonzero"/></clipPath><clipPath id="ce8fd41ddf"><path d="M -343.878906 -614.417969 L -84.015625 455.476562 L 885.300781 220.042969 L 625.441406 -849.851562 Z M -343.878906 -614.417969 " clip-rule="nonzero"/></clipPath><clipPath id="8ef9f90e6e"><path d="M 251 43 L 272 43 L 272 115 L 251 115 Z M 251 43 " clip-rule="nonzero"/></clipPath><clipPath id="f6cc2767b3"><path d="M 330.105469 -49.519531 L 422.863281 332.378906 L 44.609375 424.25 L -48.144531 42.355469 Z M 330.105469 -49.519531 " clip-rule="nonzero"/></clipPath><clipPath id="ea9e549299"><path d="M -343.878906 -614.417969 L -84.015625 455.476562 L 885.300781 220.042969 L 625.441406 -849.851562 Z M -343.878906 -614.417969 " clip-rule="nonzero"/></clipPath><clipPath id="4882b6787c"><path d="M -343.878906 -614.417969 L -84.015625 455.476562 L 885.300781 220.042969 L 625.441406 -849.851562 Z M -343.878906 -614.417969 " clip-rule="nonzero"/></clipPath><clipPath id="2cfe7272e2"><path d="M 234 222 L 260 222 L 260 291 L 234 291 Z M 234 222 " clip-rule="nonzero"/></clipPath><clipPath id="716f4762c3"><path d="M 330.105469 -49.519531 L 422.863281 332.378906 L 44.609375 424.25 L -48.144531 42.355469 Z M 330.105469 -49.519531 " clip-rule="nonzero"/></clipPath><clipPath id="c1eb6c9329"><path d="M -343.878906 -614.417969 L -84.015625 455.476562 L 885.300781 220.042969 L 625.441406 -849.851562 Z M -343.878906 -614.417969 " clip-rule="nonzero"/></clipPath><clipPath id="f4206128b7"><path d="M -343.878906 -614.417969 L -84.015625 455.476562 L 885.300781 220.042969 L 625.441406 -849.851562 Z M -343.878906 -614.417969 " clip-rule="nonzero"/></clipPath><clipPath id="e7b7d55271"><path d="M 205 205 L 220 205 L 220 296 L 205 296 Z M 205 205 " clip-rule="nonzero"/></clipPath><clipPath id="99c0247eb3"><path d="M 330.105469 -49.519531 L 422.863281 332.378906 L 44.609375 424.25 L -48.144531 42.355469 Z M 330.105469 -49.519531 " clip-rule="nonzero"/></clipPath><clipPath id="f111375e89"><path d="M -343.878906 -614.417969 L -84.015625 455.476562 L 885.300781 220.042969 L 625.441406 -849.851562 Z M -343.878906 -614.417969 " clip-rule="nonzero"/></clipPath><clipPath id="2f03805d1c"><path d="M -343.878906 -614.417969 L -84.015625 455.476562 L 885.300781 220.042969 L 625.441406 -849.851562 Z M -343.878906 -614.417969 " clip-rule="nonzero"/></clipPath><clipPath id="ba68050784"><path d="M 164 235 L 185 235 L 185 300 L 164 300 Z M 164 235 " clip-rule="nonzero"/></clipPath><clipPath id="da01fc5759"><path d="M 330.105469 -49.519531 L 422.863281 332.378906 L 44.609375 424.25 L -48.144531 42.355469 Z M 330.105469 -49.519531 " clip-rule="nonzero"/></clipPath><clipPath id="405642972f"><path d="M -343.878906 -614.417969 L -84.015625 455.476562 L 885.300781 220.042969 L 625.441406 -849.851562 Z M -343.878906 -614.417969 " clip-rule="nonzero"/></clipPath><clipPath id="b68ba90938"><path d="M -343.878906 -614.417969 L -84.015625 455.476562 L 885.300781 220.042969 L 625.441406 -849.851562 Z M -343.878906 -614.417969 " clip-rule="nonzero"/></clipPath><clipPath id="dfbaf22a85"><path d="M 85 108 L 111 108 L 111 209 L 85 209 Z M 85 108 " clip-rule="nonzero"/></clipPath><clipPath id="e24c7fe24c"><path d="M 330.105469 -49.519531 L 422.863281 332.378906 L 44.609375 424.25 L -48.144531 42.355469 Z M 330.105469 -49.519531 " clip-rule="nonzero"/></clipPath><clipPath id="d9b7929037"><path d="M -343.878906 -614.417969 L -84.015625 455.476562 L 885.300781 220.042969 L 625.441406 -849.851562 Z M -343.878906 -614.417969 " clip-rule="nonzero"/></clipPath><clipPath id="f7aa5a58f9"><path d="M -343.878906 -614.417969 L -84.015625 455.476562 L 885.300781 220.042969 L 625.441406 -849.851562 Z M -343.878906 -614.417969 " clip-rule="nonzero"/></clipPath></defs><g clip-path="url(#b4de9561b1)"><g clip-path="url(#af89b75269)"><g clip-path="url(#4313f82b6b)"><g clip-path="url(#f1a2abb90f)"><path fill="#ffffff" d="M 273.40625 305.386719 C 286.421875 323.320312 274.359375 336.40625 257.519531 346.757812 C 233.699219 361.394531 171.785156 360.089844 149.753906 349.09375 C 129.523438 338.882812 119.613281 322.566406 127.605469 306.699219 " fill-opacity="1" fill-rule="nonzero"/></g></g></g></g><g clip-path="url(#6ab53abe85)"><g clip-path="url(#23c3288c1a)"><g clip-path="url(#2d13ad30c0)"><g clip-path="url(#9f8d3ffbdb)"><path stroke-linecap="round" transform="matrix(3.091534, -0.24537, 0.24466, 3.089841, -263.978563, -2966.121357)" fill="none" stroke-linejoin="round" d="M 89.470652 1065.899857 C 93.197989 1071.999902 88.9875 1075.900687 83.31096 1078.800094 C 75.281523 1082.899506 55.412831 1080.899443 48.610899 1076.800499 C 42.367833 1073.000045 39.597568 1067.499391 42.57047 1062.6002 " stroke="#000000" stroke-width="4.061" stroke-opacity="1" stroke-miterlimit="4"/></g></g></g></g><g clip-path="url(#f29d8d6e63)"><g clip-path="url(#f489525d20)"><g clip-path="url(#c98cf67e4d)"><g clip-path="url(#5bbf7341c6)"><path fill="#ffffff" d="M 51.835938 183.367188 C 53.027344 232.085938 104.648438 304.480469 160.078125 318.113281 C 188.679688 324.859375 251.667969 322.660156 272.535156 304.523438 C 308.289062 273.703125 324.59375 236.03125 329.757812 190.847656 C 331.570312 174.847656 330.925781 156.863281 328.855469 142.101562 C 320.886719 81.746094 298.167969 38.179688 257.339844 48.5 C 240.765625 -0.164062 164.984375 17.828125 167.621094 55.808594 C 124.980469 14.910156 71.277344 60.480469 98.855469 111.199219 C 90.722656 118.71875 50.613281 132.78125 51.835938 183.367188 Z M 51.835938 183.367188 " fill-opacity="1" fill-rule="nonzero"/></g></g></g></g><g clip-path="url(#7e318e04bc)"><g clip-path="url(#1809b72e2e)"><g clip-path="url(#44e9b28ec2)"><g clip-path="url(#41faf65f11)"><path stroke-linecap="round" transform="matrix(3.091534, -0.24537, 0.24466, 3.089841, -263.978563, -2966.121357)" fill="none" stroke-linejoin="round" d="M 21.353937 1021.000025 C 20.496888 1036.69936 35.247545 1061.300593 52.71809 1067.100103 C 61.740183 1069.999879 82.04336 1070.900437 89.212617 1065.599973 C 101.489951 1056.600217 107.689841 1044.900392 110.499838 1030.500266 C 111.489697 1025.400614 111.740266 1019.600027 111.450501 1014.799516 C 110.425199 995.184578 104.231274 980.592822 90.844642 982.869841 C 86.755588 966.795425 61.938217 970.647642 61.819072 982.930225 C 49.153474 968.688005 30.731047 981.973475 38.304943 998.98961 C 35.499308 1001.200439 22.248466 1004.699368 21.353937 1021.000025 Z M 21.353937 1021.000025 " stroke="#000000" stroke-width="4.061" stroke-opacity="1" stroke-miterlimit="4"/></g></g></g></g><g clip-path="url(#8230ebae1d)"><g clip-path="url(#a579fb7397)"><g clip-path="url(#93b9560450)"><g clip-path="url(#ce8fd41ddf)"><path fill="#000000" d="M 174.195312 57.089844 C 189.378906 94.476562 185.777344 110.820312 187.007812 121.375 C 178.066406 97.585938 176.433594 91.324219 165.050781 66.761719 C 163.113281 62.585938 160.664062 58.398438 155.585938 53.964844 L 174.277344 49.679688 C 174.335938 48.742188 173.53125 54.292969 174.195312 57.089844 Z M 174.195312 57.089844 " fill-opacity="1" fill-rule="nonzero"/></g></g></g></g><g clip-path="url(#8ef9f90e6e)"><g clip-path="url(#f6cc2767b3)"><g clip-path="url(#ea9e549299)"><g clip-path="url(#4882b6787c)"><path fill="#000000" d="M 261.96875 43.3125 C 268.476562 66.085938 273.890625 94.820312 270.554688 114.359375 C 267.160156 101.785156 256.226562 69.859375 251.5 50.824219 C 251.457031 50.832031 251.539062 50.855469 261.96875 43.3125 Z M 261.96875 43.3125 " fill-opacity="1" fill-rule="nonzero"/></g></g></g></g><g clip-path="url(#2cfe7272e2)"><g clip-path="url(#716f4762c3)"><g clip-path="url(#c1eb6c9329)"><g clip-path="url(#f4206128b7)"><path stroke-linecap="round" transform="matrix(3.091534, -0.24537, 0.24466, 3.089841, -263.978563, -2966.121357)" fill="none" stroke-linejoin="round" d="M 79.641636 1058.300094 C 83.678014 1048.600396 83.617833 1045.800419 84.837069 1040.899765 " stroke="#000000" stroke-width="4.061" stroke-opacity="1" stroke-miterlimit="4"/></g></g></g></g><g clip-path="url(#e7b7d55271)"><g clip-path="url(#99c0247eb3)"><g clip-path="url(#f111375e89)"><g clip-path="url(#2f03805d1c)"><path stroke-linecap="round" transform="matrix(3.091534, -0.24537, 0.24466, 3.089841, -263.978563, -2966.121357)" fill="none" stroke-linejoin="round" d="M 70.260112 1059.000096 C 71.953611 1047.499932 71.68451 1041.79967 72.115742 1034.099396 " stroke="#000000" stroke-width="4.061" stroke-opacity="1" stroke-miterlimit="4"/></g></g></g></g><g clip-path="url(#ba68050784)"><g clip-path="url(#da01fc5759)"><g clip-path="url(#405642972f)"><g clip-path="url(#b68ba90938)"><path stroke-linecap="round" transform="matrix(3.091534, -0.24537, 0.24466, 3.089841, -263.978563, -2966.121357)" fill="none" stroke-linejoin="round" d="M 59.04084 1059.499797 C 59.139457 1051.500037 58.443252 1047.70012 57.992412 1042.699713 " stroke="#000000" stroke-width="4.061" stroke-opacity="1" stroke-miterlimit="4"/></g></g></g></g><g clip-path="url(#dfbaf22a85)"><g clip-path="url(#e24c7fe24c)"><g clip-path="url(#d9b7929037)"><g clip-path="url(#f7aa5a58f9)"><path fill="#000000" d="M 91.570312 108.761719 C 107.707031 159.65625 93.578125 181.296875 85.1875 208.390625 C 98.941406 179.941406 119.832031 168.953125 104.835938 109.171875 Z M 91.570312 108.761719 " fill-opacity="1" fill-rule="nonzero"/></g></g></g></g></svg>