<svg xmlns="http://www.w3.org/2000/svg" xmlns:xlink="http://www.w3.org/1999/xlink" width="500" zoomAndPan="magnify" viewBox="0 0 375 374.999991" height="500" preserveAspectRatio="xMidYMid meet" version="1.0"><defs><clipPath id="ddec2b021f"><path d="M 134 325 L 254 325 L 254 366 L 134 366 Z M 134 325 " clip-rule="nonzero"/></clipPath><clipPath id="8b2dc84e46"><path d="M 123.5 441.371094 L -66.898438 52.757812 L 228.773438 -92.101562 L 419.171875 296.511719 Z M 123.5 441.371094 " clip-rule="nonzero"/></clipPath><clipPath id="bbb0c6118d"><path d="M 123.5 441.371094 L -250.367188 -321.710938 L 440.652344 -660.273438 L 814.519531 102.8125 Z M 123.5 441.371094 " clip-rule="nonzero"/></clipPath><clipPath id="acd0b7c11c"><path d="M 123.5 441.371094 L -250.367188 -321.710938 L 440.652344 -660.273438 L 814.519531 102.8125 Z M 123.5 441.371094 " clip-rule="nonzero"/></clipPath><clipPath id="4e1e5cb5fe"><path d="M 130 321 L 259 321 L 259 371 L 130 371 Z M 130 321 " clip-rule="nonzero"/></clipPath><clipPath id="d95498bc15"><path d="M 123.5 441.371094 L -66.898438 52.757812 L 228.773438 -92.101562 L 419.171875 296.511719 Z M 123.5 441.371094 " clip-rule="nonzero"/></clipPath><clipPath id="8b680c789e"><path d="M 123.5 441.371094 L -250.367188 -321.710938 L 440.652344 -660.273438 L 814.519531 102.8125 Z M 123.5 441.371094 " clip-rule="nonzero"/></clipPath><clipPath id="e2d4900c44"><path d="M 123.5 441.371094 L -250.367188 -321.710938 L 440.652344 -660.273438 L 814.519531 102.8125 Z M 123.5 441.371094 " clip-rule="nonzero"/></clipPath><clipPath id="fd2c81c595"><path d="M 79 7 L 296 7 L 296 339 L 79 339 Z M 79 7 " clip-rule="nonzero"/></clipPath><clipPath id="879be3de6f"><path d="M 123.5 441.371094 L -66.898438 52.757812 L 228.773438 -92.101562 L 419.171875 296.511719 Z M 123.5 441.371094 " clip-rule="nonzero"/></clipPath><clipPath id="b8e0d8254e"><path d="M 123.5 441.371094 L -250.367188 -321.710938 L 440.652344 -660.273438 L 814.519531 102.8125 Z M 123.5 441.371094 " clip-rule="nonzero"/></clipPath><clipPath id="f0019f4a3e"><path d="M 123.5 441.371094 L -250.367188 -321.710938 L 440.652344 -660.273438 L 814.519531 102.8125 Z M 123.5 441.371094 " clip-rule="nonzero"/></clipPath><clipPath id="071d8ebf6a"><path d="M 75 3 L 301 3 L 301 343 L 75 343 Z M 75 3 " clip-rule="nonzero"/></clipPath><clipPath id="a3322b39a4"><path d="M 123.5 441.371094 L -66.898438 52.757812 L 228.773438 -92.101562 L 419.171875 296.511719 Z M 123.5 441.371094 " clip-rule="nonzero"/></clipPath><clipPath id="c193f6722b"><path d="M 123.5 441.371094 L -250.367188 -321.710938 L 440.652344 -660.273438 L 814.519531 102.8125 Z M 123.5 441.371094 " clip-rule="nonzero"/></clipPath><clipPath id="1caa52f604"><path d="M 123.5 441.371094 L -250.367188 -321.710938 L 440.652344 -660.273438 L 814.519531 102.8125 Z M 123.5 441.371094 " clip-rule="nonzero"/></clipPath><clipPath id="066eb0e6ed"><path d="M 165 125 L 191 125 L 191 182 L 165 182 Z M 165 125 " clip-rule="nonzero"/></clipPath><clipPath id="0950bb5428"><path d="M 123.5 441.371094 L -66.898438 52.757812 L 228.773438 -92.101562 L 419.171875 296.511719 Z M 123.5 441.371094 " clip-rule="nonzero"/></clipPath><clipPath id="393e1be25a"><path d="M 123.5 441.371094 L -250.367188 -321.710938 L 440.652344 -660.273438 L 814.519531 102.8125 Z M 123.5 441.371094 " clip-rule="nonzero"/></clipPath><clipPath id="c0c193dd7b"><path d="M 123.5 441.371094 L -250.367188 -321.710938 L 440.652344 -660.273438 L 814.519531 102.8125 Z M 123.5 441.371094 " clip-rule="nonzero"/></clipPath><clipPath id="4bdf90f69a"><path d="M 234 127 L 251 127 L 251 182 L 234 182 Z M 234 127 " clip-rule="nonzero"/></clipPath><clipPath id="52498532c1"><path d="M 123.5 441.371094 L -66.898438 52.757812 L 228.773438 -92.101562 L 419.171875 296.511719 Z M 123.5 441.371094 " clip-rule="nonzero"/></clipPath><clipPath id="57e8201306"><path d="M 123.5 441.371094 L -250.367188 -321.710938 L 440.652344 -660.273438 L 814.519531 102.8125 Z M 123.5 441.371094 " clip-rule="nonzero"/></clipPath><clipPath id="311edba3e6"><path d="M 123.5 441.371094 L -250.367188 -321.710938 L 440.652344 -660.273438 L 814.519531 102.8125 Z M 123.5 441.371094 " clip-rule="nonzero"/></clipPath><clipPath id="95efd42fd2"><path d="M 220 262 L 240 262 L 240 315 L 220 315 Z M 220 262 " clip-rule="nonzero"/></clipPath><clipPath id="971fc15d06"><path d="M 123.5 441.371094 L -66.898438 52.757812 L 228.773438 -92.101562 L 419.171875 296.511719 Z M 123.5 441.371094 " clip-rule="nonzero"/></clipPath><clipPath id="9914d02779"><path d="M 123.5 441.371094 L -250.367188 -321.710938 L 440.652344 -660.273438 L 814.519531 102.8125 Z M 123.5 441.371094 " clip-rule="nonzero"/></clipPath><clipPath id="bcc082fb53"><path d="M 123.5 441.371094 L -250.367188 -321.710938 L 440.652344 -660.273438 L 814.519531 102.8125 Z M 123.5 441.371094 " clip-rule="nonzero"/></clipPath><clipPath id="78dd76a58d"><path d="M 197 248 L 209 248 L 209 318 L 197 318 Z M 197 248 " clip-rule="nonzero"/></clipPath><clipPath id="38cda7f521"><path d="M 123.5 441.371094 L -66.898438 52.757812 L 228.773438 -92.101562 L 419.171875 296.511719 Z M 123.5 441.371094 " clip-rule="nonzero"/></clipPath><clipPath id="43a4848027"><path d="M 123.5 441.371094 L -250.367188 -321.710938 L 440.652344 -660.273438 L 814.519531 102.8125 Z M 123.5 441.371094 " clip-rule="nonzero"/></clipPath><clipPath id="ea1441ac59"><path d="M 123.5 441.371094 L -250.367188 -321.710938 L 440.652344 -660.273438 L 814.519531 102.8125 Z M 123.5 441.371094 " clip-rule="nonzero"/></clipPath><clipPath id="05bd03047d"><path d="M 166 271 L 181 271 L 181 321 L 166 321 Z M 166 271 " clip-rule="nonzero"/></clipPath><clipPath id="7815d62fed"><path d="M 123.5 441.371094 L -66.898438 52.757812 L 228.773438 -92.101562 L 419.171875 296.511719 Z M 123.5 441.371094 " clip-rule="nonzero"/></clipPath><clipPath id="af3d5b515c"><path d="M 123.5 441.371094 L -250.367188 -321.710938 L 440.652344 -660.273438 L 814.519531 102.8125 Z M 123.5 441.371094 " clip-rule="nonzero"/></clipPath><clipPath id="be1ac4fbdb"><path d="M 123.5 441.371094 L -250.367188 -321.710938 L 440.652344 -660.273438 L 814.519531 102.8125 Z M 123.5 441.371094 " clip-rule="nonzero"/></clipPath><clipPath id="5d03c09a01"><path d="M 105 172 L 126 172 L 126 250 L 105 250 Z M 105 172 " clip-rule="nonzero"/></clipPath><clipPath id="4e188f4a4c"><path d="M 123.5 441.371094 L -66.898438 52.757812 L 228.773438 -92.101562 L 419.171875 296.511719 Z M 123.5 441.371094 " clip-rule="nonzero"/></clipPath><clipPath id="c444489981"><path d="M 123.5 441.371094 L -250.367188 -321.710938 L 440.652344 -660.273438 L 814.519531 102.8125 Z M 123.5 441.371094 " clip-rule="nonzero"/></clipPath><clipPath id="499e6d8302"><path d="M 123.5 441.371094 L -250.367188 -321.710938 L 440.652344 -660.273438 L 814.519531 102.8125 Z M 123.5 441.371094 " clip-rule="nonzero"/></clipPath><clipPath id="e7bef75d44"><path d="M 314 0 L 375 0 L 375 89 L 314 89 Z M 314 0 " clip-rule="nonzero"/></clipPath><clipPath id="e36cf7c7c4"><path d="M 123.5 441.371094 L -66.898438 52.757812 L 228.773438 -92.101562 L 419.171875 296.511719 Z M 123.5 441.371094 " clip-rule="nonzero"/></clipPath><clipPath id="d8b1e66485"><path d="M 123.5 441.371094 L -250.367188 -321.710938 L 440.652344 -660.273438 L 814.519531 102.8125 Z M 123.5 441.371094 " clip-rule="nonzero"/></clipPath><clipPath id="5b2c4a998f"><path d="M 123.5 441.371094 L -250.367188 -321.710938 L 440.652344 -660.273438 L 814.519531 102.8125 Z M 123.5 441.371094 " clip-rule="nonzero"/></clipPath><clipPath id="c021f4b5cc"><path d="M 309 0 L 375 0 L 375 94 L 309 94 Z M 309 0 " clip-rule="nonzero"/></clipPath><clipPath id="c7b2af2043"><path d="M 123.5 441.371094 L -66.898438 52.757812 L 228.773438 -92.101562 L 419.171875 296.511719 Z M 123.5 441.371094 " clip-rule="nonzero"/></clipPath><clipPath id="902bbeb05b"><path d="M 123.5 441.371094 L -250.367188 -321.710938 L 440.652344 -660.273438 L 814.519531 102.8125 Z M 123.5 441.371094 " clip-rule="nonzero"/></clipPath><clipPath id="f3e2a3ec14"><path d="M 123.5 441.371094 L -250.367188 -321.710938 L 440.652344 -660.273438 L 814.519531 102.8125 Z M 123.5 441.371094 " clip-rule="nonzero"/></clipPath></defs><g clip-path="url(#ddec2b021f)"><g clip-path="url(#8b2dc84e46)"><g clip-path="url(#bbb0c6118d)"><g clip-path="url(#acd0b7c11c)"><path fill="#ffffff" d="M 249.71875 326.265625 C 259.59375 340.226562 250.164062 350.210938 237.078125 358.042969 C 218.566406 369.117188 170.820312 367.523438 153.925781 358.828125 C 138.417969 350.757812 130.925781 338.074219 137.234375 325.902344 " fill-opacity="1" fill-rule="nonzero"/></g></g></g></g><g clip-path="url(#4e1e5cb5fe)"><g clip-path="url(#d95498bc15)"><g clip-path="url(#8b680c789e)"><g clip-path="url(#e2d4900c44)"><path stroke-linecap="round" transform="matrix(2.387097, -0.160229, 0.160006, 2.386898, -134.406315, -2203.594535)" fill="none" stroke-linejoin="round" d="M 89.470638 1065.900383 C 93.198634 1071.999625 88.986927 1075.89989 83.310581 1078.800105 C 75.280814 1082.900664 55.413225 1080.899277 48.610579 1076.799692 C 42.368781 1072.999602 39.598809 1067.499819 42.570042 1062.599821 " stroke="#000000" stroke-width="4.061" stroke-opacity="1" stroke-miterlimit="4"/></g></g></g></g><g clip-path="url(#fd2c81c595)"><g clip-path="url(#879be3de6f)"><g clip-path="url(#b8e0d8254e)"><g clip-path="url(#f0019f4a3e)"><path fill="#ffffff" d="M 79.933594 230.007812 C 80.398438 267.617188 119.546875 323.972656 162.179688 335.019531 C 184.179688 340.496094 232.789062 339.390625 249.054688 325.589844 C 276.921875 302.140625 289.851562 273.21875 294.253906 238.398438 C 295.800781 226.066406 295.46875 212.183594 294.007812 200.773438 C 288.121094 159.054688 254.152344 136.585938 239.710938 127.859375 C 237.445312 100.558594 238.003906 67.433594 240.320312 36.183594 C 243.78125 -10.566406 179.890625 5.449219 177.097656 49.273438 C 175.789062 69.789062 172.285156 86.785156 170.4375 132.65625 C 161.285156 108.621094 146.304688 74.238281 140.4375 50.175781 C 130.761719 10.472656 74.769531 38.421875 87.621094 86.710938 C 96.375 119.59375 108.375 143.4375 116.875 174.753906 C 110.53125 180.480469 79.460938 190.957031 79.933594 230.007812 Z M 79.933594 230.007812 " fill-opacity="1" fill-rule="nonzero"/></g></g></g></g><g clip-path="url(#071d8ebf6a)"><g clip-path="url(#a3322b39a4)"><g clip-path="url(#c193f6722b)"><g clip-path="url(#1caa52f604)"><path stroke-linecap="round" transform="matrix(2.387097, -0.160229, 0.160006, 2.386898, -134.406315, -2203.594535)" fill="none" stroke-linejoin="round" d="M 21.354053 1021.000253 C 20.49649 1036.699274 35.247551 1061.299824 52.71841 1067.100745 C 61.740238 1070.000793 82.043313 1070.900566 89.212588 1065.59994 C 101.489942 1056.599962 107.690722 1044.899283 110.500137 1030.499774 C 111.490008 1025.399672 111.739651 1019.600174 111.449365 1014.80036 C 110.16066 997.235626 96.622397 986.913456 90.843682 982.869514 C 90.662052 971.419558 91.821065 957.619518 93.660742 944.650708 C 96.411062 925.249246 69.318224 930.140352 66.92827 948.340238 C 65.808987 956.8602 63.87256 963.850788 61.819618 982.930843 C 58.67464 972.650107 53.388369 957.89044 51.614204 947.690269 C 48.68895 930.860129 24.556475 940.949583 28.566132 961.449628 C 31.297597 975.409364 35.63552 985.68999 38.304886 998.989306 C 35.499179 1001.200128 22.248655 1004.699836 21.354053 1021.000253 Z M 21.354053 1021.000253 " stroke="#000000" stroke-width="4.061" stroke-opacity="1" stroke-miterlimit="4"/></g></g></g></g><g clip-path="url(#066eb0e6ed)"><g clip-path="url(#0950bb5428)"><g clip-path="url(#393e1be25a)"><g clip-path="url(#c0c193dd7b)"><path fill="#000000" d="M 165.019531 132.082031 C 174.292969 161.8125 185.855469 174.945312 190.292969 181.839844 C 183.964844 163.273438 181.867188 158.742188 176.613281 138.523438 C 175.722656 135.082031 175.25 130.941406 175.484375 125.816406 Z M 165.019531 132.082031 " fill-opacity="1" fill-rule="nonzero"/></g></g></g></g><g clip-path="url(#4bdf90f69a)"><g clip-path="url(#52498532c1)"><g clip-path="url(#57e8201306)"><g clip-path="url(#311edba3e6)"><path fill="#000000" d="M 234.882812 128.425781 C 236.40625 146.640625 242.613281 168.210938 250.355469 181.40625 C 248.300781 161.707031 246.660156 146.160156 244.265625 127.445312 C 244.214844 127.449219 239.609375 128.117188 234.882812 128.433594 Z M 234.882812 128.425781 " fill-opacity="1" fill-rule="nonzero"/></g></g></g></g><g clip-path="url(#95efd42fd2)"><g clip-path="url(#971fc15d06)"><g clip-path="url(#9914d02779)"><g clip-path="url(#bcc082fb53)"><path stroke-linecap="round" transform="matrix(2.387097, -0.160229, 0.160006, 2.386898, -134.406315, -2203.594535)" fill="none" stroke-linejoin="round" d="M 79.641299 1058.299997 C 83.677233 1048.599497 83.617765 1045.800298 84.836399 1040.900481 " stroke="#000000" stroke-width="4.061" stroke-opacity="1" stroke-miterlimit="4"/></g></g></g></g><g clip-path="url(#78dd76a58d)"><g clip-path="url(#38cda7f521)"><g clip-path="url(#43a4848027)"><g clip-path="url(#ea1441ac59)"><path stroke-linecap="round" transform="matrix(2.387097, -0.160229, 0.160006, 2.386898, -134.406315, -2203.594535)" fill="none" stroke-linejoin="round" d="M 70.26029 1059.00077 C 71.952483 1047.499854 71.684901 1041.799832 72.115963 1034.099399 " stroke="#000000" stroke-width="4.061" stroke-opacity="1" stroke-miterlimit="4"/></g></g></g></g><g clip-path="url(#05bd03047d)"><g clip-path="url(#7815d62fed)"><g clip-path="url(#af3d5b515c)"><g clip-path="url(#be1ac4fbdb)"><path stroke-linecap="round" transform="matrix(2.387097, -0.160229, 0.160006, 2.386898, -134.406315, -2203.594535)" fill="none" stroke-linejoin="round" d="M 59.040414 1059.499549 C 59.139681 1051.500268 58.443706 1047.69933 57.993297 1042.700566 " stroke="#000000" stroke-width="4.061" stroke-opacity="1" stroke-miterlimit="4"/></g></g></g></g><g clip-path="url(#5d03c09a01)"><g clip-path="url(#4e188f4a4c)"><g clip-path="url(#c444489981)"><g clip-path="url(#499e6d8302)"><path fill="#000000" d="M 111.277344 172.804688 C 123.253906 212.234375 112.152344 228.804688 105.429688 249.636719 C 116.300781 227.804688 132.519531 219.523438 121.507812 173.246094 Z M 111.277344 172.804688 " fill-opacity="1" fill-rule="nonzero"/></g></g></g></g><g clip-path="url(#e7bef75d44)"><g clip-path="url(#e36cf7c7c4)"><g clip-path="url(#d8b1e66485)"><g clip-path="url(#5b2c4a998f)"><path fill="#ffffff" d="M 457.691406 83.34375 C 471.023438 100.195312 495.765625 75.101562 517.152344 44.929688 C 525.457031 33.214844 580.246094 28.003906 604.429688 2.828125 C 620.164062 -13.550781 642.28125 -56.960938 638.039062 -77.824219 C 630.769531 -113.554688 611.730469 -138.746094 583.289062 -159.320312 C 573.207031 -166.613281 560.804688 -173.023438 550.167969 -177.191406 C 515.238281 -190.863281 446.707031 -259.277344 436.925781 -260.992188 C 409.746094 -265.757812 410.941406 -231.179688 423.785156 -218.132812 C 430.007812 -211.816406 470.207031 -160.089844 460.019531 -164.613281 C 434.992188 -175.730469 406.210938 -192.125 379.914062 -209.15625 C 340.5625 -234.648438 323.921875 -170.921875 361.011719 -147.433594 C 378.386719 -136.429688 391.601562 -125.199219 430.953125 -101.550781 C 405.484375 -105.058594 368.128906 -108.433594 344.191406 -114.84375 C 304.726562 -125.417969 302.34375 -62.894531 350.867188 -50.980469 C 383.914062 -42.867188 445.058594 -34.761719 496.5 -7.761719 C 469.960938 4.792969 417.480469 32.511719 457.6875 83.34375 Z M 457.691406 83.34375 " fill-opacity="1" fill-rule="nonzero"/></g></g></g></g><g clip-path="url(#c021f4b5cc)"><g clip-path="url(#c7b2af2043)"><g clip-path="url(#902bbeb05b)"><g clip-path="url(#f3e2a3ec14)"><path stroke-linecap="round" transform="matrix(1.006093, -2.170589, 2.170656, 1.005802, -1764.906912, -956.030217)" fill="none" stroke-linejoin="round" d="M -3.604379 1025.599869 C -7.652502 1033.618098 6.212298 1038.590287 21.413323 1041.397307 C 27.31558 1042.487516 38.919968 1062.349699 52.717717 1067.095627 C 61.694451 1070.183609 82.044475 1070.940604 89.211413 1065.664414 C 101.48475 1056.626756 107.692866 1044.978203 110.497625 1030.575528 C 111.491766 1025.470054 111.743349 1019.639808 111.454855 1014.873292 C 110.501701 999.223311 124.404747 961.207615 123.336235 957.196742 C 120.367291 946.051423 107.463553 952.582937 104.772556 959.747196 C 103.470565 963.217382 90.917457 987.555097 90.842717 982.896457 C 90.660843 971.450903 91.82073 957.654059 93.658675 944.687465 C 96.411328 925.282739 69.318687 930.173927 66.928564 948.368669 C 65.808646 956.89224 63.871736 963.877942 61.818328 982.958569 C 58.673022 972.683206 53.388482 957.923277 51.612981 947.718445 C 48.688071 930.893066 24.557255 940.979891 28.565904 961.476166 C 31.296292 975.43501 38.967271 1000.048219 37.767339 1024.302935 C 28.342226 1016.445162 8.607417 1001.414952 -3.605066 1025.598387 Z M -3.604379 1025.599869 " stroke="#000000" stroke-width="4.061" stroke-opacity="1" stroke-miterlimit="4"/></g></g></g></g></svg>