<svg xmlns="http://www.w3.org/2000/svg" xmlns:xlink="http://www.w3.org/1999/xlink" width="500" zoomAndPan="magnify" viewBox="0 0 375 374.999991" height="500" preserveAspectRatio="xMidYMid meet" version="1.0"><defs><clipPath id="a969973d4f"><path d="M 63 13 L 335 13 L 335 369 L 63 369 Z M 63 13 " clip-rule="nonzero"/></clipPath><clipPath id="52e7202f9f"><path d="M 99.621094 -45.042969 L 387.066406 123.078125 L 230.308594 391.101562 L -57.140625 222.980469 Z M 99.621094 -45.042969 " clip-rule="nonzero"/></clipPath><clipPath id="a8e8f3bad1"><path d="M 387.21875 123.167969 L 99.773438 -44.953125 L -56.988281 223.070312 L 230.457031 391.191406 Z M 387.21875 123.167969 " clip-rule="nonzero"/></clipPath><clipPath id="d96fa1c253"><path d="M 387.21875 123.167969 L 99.773438 -44.953125 L -56.988281 223.070312 L 230.457031 391.191406 Z M 387.21875 123.167969 " clip-rule="nonzero"/></clipPath><clipPath id="67efada404"><path d="M 70 22 L 329 22 L 329 360 L 70 360 Z M 70 22 " clip-rule="nonzero"/></clipPath><clipPath id="c00a49e226"><path d="M 99.621094 -45.042969 L 387.066406 123.078125 L 230.308594 391.101562 L -57.140625 222.980469 Z M 99.621094 -45.042969 " clip-rule="nonzero"/></clipPath><clipPath id="3b56cce259"><path d="M 387.21875 123.167969 L 99.773438 -44.953125 L -56.988281 223.070312 L 230.457031 391.191406 Z M 387.21875 123.167969 " clip-rule="nonzero"/></clipPath><clipPath id="5583a229b0"><path d="M 387.21875 123.167969 L 99.773438 -44.953125 L -56.988281 223.070312 L 230.457031 391.191406 Z M 387.21875 123.167969 " clip-rule="nonzero"/></clipPath></defs><g clip-path="url(#a969973d4f)"><g clip-path="url(#52e7202f9f)"><g clip-path="url(#a8e8f3bad1)"><g clip-path="url(#d96fa1c253)"><path fill="#000000" d="M 165.464844 21.515625 C 162.691406 22.074219 162.386719 22.285156 162.070312 24.789062 C 161.832031 26.660156 161.765625 28.566406 161.746094 30.457031 C 161.660156 37.488281 161.617188 44.523438 161.582031 51.554688 C 161.566406 54.160156 161.574219 56.769531 161.65625 59.375 C 162.984375 103.300781 164.71875 147.214844 164.1875 191.175781 C 164.074219 200.4375 163.410156 209.652344 162.53125 218.859375 C 161.300781 231.691406 160.589844 244.550781 160.503906 257.441406 C 160.488281 259.574219 160.226562 261.699219 160.132812 263.828125 C 159.917969 268.800781 159.554688 273.773438 159.617188 278.746094 C 159.644531 281.226562 160.4375 283.703125 160.945312 286.167969 C 161.144531 287.136719 161.753906 287.777344 162.726562 288.214844 C 168.558594 290.820312 174.324219 293.582031 180.191406 296.113281 C 183.226562 297.421875 186.425781 298.359375 189.550781 299.476562 C 192.972656 300.699219 195.863281 297.789062 196.324219 295.039062 C 196.75 292.484375 197.390625 289.945312 198.183594 287.476562 C 203.453125 271.035156 207.21875 254.25 210.097656 237.230469 C 212.207031 224.769531 214.636719 212.347656 217.300781 199.992188 C 220.292969 186.132812 222.0625 172.105469 223.910156 158.082031 C 225.632812 144.996094 227.503906 131.921875 228.257812 118.730469 C 228.484375 114.742188 229.628906 110.953125 230.785156 107.179688 C 232.917969 100.210938 234.726562 93.195312 235.199219 85.871094 C 235.367188 83.285156 236.03125 80.726562 236.535156 78.171875 C 237.308594 74.21875 238.167969 70.28125 238.921875 66.328125 C 239.246094 64.625 239.429688 62.890625 239.625 61.167969 C 240.066406 57.328125 240.394531 53.46875 240.929688 49.640625 C 241.199219 47.722656 240.417969 46.535156 239.042969 45.382812 C 236.101562 42.917969 232.671875 41.28125 229.285156 39.640625 C 221.816406 36.03125 214.328125 32.4375 206.695312 29.1875 C 194.9375 24.179688 182.691406 20.8125 169.976562 19.242188 C 169.820312 19.222656 169.664062 19.210938 169.503906 19.195312 C 166.816406 18.953125 166.816406 18.953125 165.464844 21.515625 Z M 232.292969 49.640625 C 230.503906 55.078125 230.054688 60.84375 229.1875 66.535156 C 228.84375 68.800781 228.417969 71.050781 228.011719 73.308594 C 226.242188 83.1875 224.46875 93.066406 222.691406 102.945312 C 221.851562 107.609375 220.78125 112.246094 220.199219 116.941406 C 218.472656 130.902344 216.945312 144.886719 215.328125 158.859375 C 213.6875 172.996094 211.71875 187.070312 208.726562 201.007812 C 206.488281 211.433594 204.691406 221.960938 202.871094 232.46875 C 200.832031 244.230469 199 256.023438 197.042969 267.796875 C 196.824219 269.113281 196.550781 270.460938 196.023438 271.679688 C 193.632812 277.210938 191.859375 282.933594 190.492188 288.792969 C 190.335938 289.464844 190.125 290.125 189.886719 290.972656 C 182.0625 287.898438 174.011719 285.910156 166.585938 282.160156 C 166.703125 280.339844 166.808594 278.6875 166.917969 277.035156 C 167.332031 270.808594 167.71875 264.578125 168.175781 258.355469 C 168.507812 253.785156 168.730469 249.195312 169.355469 244.664062 C 173.789062 212.554688 175.449219 180.300781 174.074219 147.925781 C 173.355469 131.085938 173.25 114.269531 174.007812 97.4375 C 174.347656 89.847656 174.179688 82.265625 173.378906 74.703125 C 172.832031 69.515625 172.453125 64.300781 171.691406 59.144531 C 170.308594 49.804688 170.0625 40.417969 169.984375 31.007812 C 169.976562 30.242188 170.035156 29.480469 170.074219 28.511719 C 170.867188 28.714844 171.460938 28.84375 172.042969 29.019531 C 185.894531 33.179688 199.746094 37.335938 213.589844 41.523438 C 215.324219 42.050781 217.039062 42.683594 218.695312 43.421875 C 223.15625 45.40625 227.578125 47.476562 232.292969 49.640625 Z M 236.085938 74.648438 C 235.492188 70.429688 236.816406 63.328125 238.445312 61.355469 C 237.660156 65.785156 236.871094 70.214844 236.085938 74.648438 Z M 192.949219 290.242188 C 192.808594 290.210938 192.664062 290.175781 192.519531 290.144531 C 192.746094 289.09375 192.953125 288.039062 193.199219 286.992188 C 193.425781 286.035156 193.695312 285.085938 193.945312 284.132812 C 194.089844 284.175781 194.234375 284.214844 194.378906 284.253906 C 193.902344 286.25 193.425781 288.246094 192.949219 290.242188 Z M 68.71875 15.128906 C 66.824219 13.566406 65.757812 13.75 64.71875 16.308594 C 64.136719 17.738281 63.625 19.34375 63.667969 20.855469 C 63.851562 27.644531 64.085938 34.441406 64.617188 41.210938 C 65.15625 48.058594 65.851562 54.914062 66.855469 61.710938 C 69.039062 76.488281 71.304688 91.253906 74.683594 105.824219 C 75.71875 110.277344 76.261719 114.855469 76.804688 119.40625 C 77.839844 128.117188 78.605469 136.863281 79.695312 145.566406 C 80.660156 153.246094 81.691406 160.933594 83.085938 168.542969 C 86.179688 185.417969 88.796875 202.355469 90.957031 219.378906 C 92.277344 229.796875 94.332031 240.125 96.171875 250.472656 C 97.101562 255.6875 98.289062 260.851562 99.351562 266.039062 C 99.449219 266.503906 99.601562 266.980469 99.566406 267.4375 C 99.378906 270 100.953125 271.203125 103.066406 271.832031 C 104.570312 272.28125 106.152344 272.566406 107.71875 272.710938 C 111.828125 273.085938 115.8125 274.027344 119.808594 275.027344 C 123.398438 275.929688 127.0625 276.5625 130.726562 277.105469 C 132.089844 277.304688 133.589844 277.101562 134.9375 276.742188 C 137.625 276.019531 139.328125 273.792969 138.941406 271.0625 C 138.476562 267.773438 139.128906 264.617188 139.375 261.402344 C 139.777344 256.125 140.320312 250.847656 140.445312 245.5625 C 140.9375 224.789062 141.449219 204.011719 141.65625 183.234375 C 141.925781 156.265625 140.664062 129.351562 138.191406 102.492188 C 137.933594 99.664062 137.914062 96.808594 137.65625 93.976562 C 136.769531 84.222656 135.882812 74.472656 134.882812 64.730469 C 133.613281 52.386719 132.207031 40.058594 130.925781 27.714844 C 130.78125 26.332031 130.914062 24.882812 131.140625 23.5 C 131.582031 20.785156 130.75 18.875 128.316406 17.605469 C 127.6875 17.277344 127.019531 17.003906 126.339844 16.804688 C 119.714844 14.867188 113.007812 13.527344 106.050781 13.550781 C 97.992188 13.578125 89.933594 13.367188 81.875 13.316406 C 79.507812 13.300781 77.117188 13.316406 74.777344 13.613281 C 72.855469 13.859375 70.988281 14.542969 68.71875 15.128906 Z M 125.027344 26.199219 C 125.695312 28.664062 126.238281 31.011719 126.035156 33.515625 C 125.882812 35.402344 125.980469 37.308594 126.003906 39.207031 C 126.113281 47.976562 126.144531 56.753906 126.382812 65.523438 C 126.527344 70.808594 126.730469 76.121094 127.375 81.363281 C 128.539062 90.816406 128.859375 100.277344 128.347656 109.765625 C 127.929688 117.535156 128.339844 125.234375 129.304688 132.949219 C 129.910156 137.800781 130.316406 142.714844 130.332031 147.601562 C 130.40625 170.835938 130.394531 194.074219 130.257812 217.3125 C 130.171875 231.378906 129.835938 245.445312 129.554688 259.507812 C 129.5 262.089844 129.171875 264.664062 128.957031 267.460938 C 127.792969 267.335938 126.949219 267.234375 126.105469 267.152344 C 121.386719 266.691406 116.671875 266.222656 111.957031 265.78125 C 111.089844 265.699219 110.21875 265.726562 109.351562 265.667969 C 107.425781 265.535156 107.449219 265.488281 107.128906 263.648438 C 105.351562 253.449219 103.816406 243.199219 101.679688 233.074219 C 98.929688 220.054688 97.109375 206.921875 95.515625 193.730469 C 94.460938 185.023438 93.011719 176.363281 91.765625 167.679688 C 90.609375 159.621094 89.460938 151.5625 88.367188 143.496094 C 86.5625 130.183594 84.964844 116.835938 82.976562 103.550781 C 81.527344 93.859375 79.429688 84.265625 77.90625 74.585938 C 75.316406 58.105469 72.945312 41.59375 70.488281 25.097656 C 70.402344 24.503906 70.410156 23.894531 70.367188 23.214844 C 88.753906 21.855469 106.816406 23.402344 125.027344 26.199219 Z M 131.550781 249.804688 C 131.726562 249.800781 131.898438 249.796875 132.074219 249.789062 C 132.027344 250.976562 131.976562 252.160156 131.925781 253.34375 C 131.757812 253.339844 131.585938 253.335938 131.417969 253.332031 C 131.460938 252.15625 131.507812 250.980469 131.550781 249.804688 Z M 262.207031 326.8125 C 263.632812 326.238281 264.519531 324.917969 265.222656 323.503906 C 267.449219 319.046875 269.765625 314.632812 271.765625 310.074219 C 276.269531 299.800781 280.527344 289.414062 285.042969 279.144531 C 287.175781 274.300781 289.609375 269.589844 292.019531 264.878906 C 298.539062 252.152344 303.113281 238.722656 306.960938 224.988281 C 313.078125 203.132812 318.160156 181.035156 322.617188 158.792969 C 324.902344 147.40625 326.640625 135.910156 328.871094 124.511719 C 330.519531 116.0625 332.554688 107.6875 334.4375 99.285156 C 334.949219 97.007812 335.0625 94.800781 333.484375 92.847656 C 333.152344 92.4375 332.734375 91.878906 332.292969 91.808594 C 330.765625 91.570312 329.820312 90.488281 328.675781 89.664062 C 326.367188 88.007812 324.105469 86.25 321.660156 84.824219 C 310.445312 78.277344 298.929688 72.351562 286.605469 68.125 C 285.277344 67.667969 284.121094 66.734375 282.800781 66.261719 C 280.496094 65.441406 278.152344 64.71875 275.78125 64.117188 C 272.40625 63.253906 271.433594 63.71875 270.515625 66.984375 C 269.28125 71.386719 267.933594 75.757812 267.429688 80.355469 C 266.371094 90.015625 265.160156 99.664062 263.921875 109.304688 C 263.519531 112.433594 262.980469 115.5625 262.261719 118.632812 C 260.835938 124.726562 259.828125 130.867188 259.214844 137.097656 C 257.070312 158.902344 253.992188 180.578125 249.757812 202.074219 C 247.101562 215.566406 243.890625 228.945312 241.144531 242.421875 C 239.03125 252.796875 237.277344 263.246094 235.308594 273.65625 C 234.472656 278.082031 233.527344 282.484375 232.574219 286.890625 C 232.34375 287.960938 231.890625 288.984375 231.542969 290.035156 C 229.898438 294.980469 228.113281 299.882812 226.65625 304.882812 C 225.460938 308.976562 226.832031 311.15625 230.699219 312.996094 C 235.191406 315.128906 239.554688 317.53125 244.003906 319.75 C 245.976562 320.734375 247.992188 321.667969 250.050781 322.445312 C 254.035156 323.953125 258.0625 325.332031 262.207031 326.8125 Z M 328.179688 95.464844 C 326.835938 99.886719 325.632812 103.808594 324.457031 107.734375 C 320.003906 122.589844 316.070312 137.566406 313.96875 152.960938 C 312.792969 161.589844 311.023438 170.089844 308.902344 178.527344 C 306.109375 189.640625 303.304688 200.75 300.570312 211.875 C 298.761719 219.242188 297.054688 226.632812 295.335938 234.023438 C 291.894531 248.84375 286.976562 263.179688 281.066406 277.183594 C 277.628906 285.335938 273.960938 293.394531 270.429688 301.511719 C 268.128906 306.800781 265.929688 312.132812 263.609375 317.414062 C 263.023438 318.746094 262.152344 319.949219 261.472656 321.113281 C 258.453125 319.90625 255.578125 318.835938 252.773438 317.597656 C 250.617188 316.648438 248.425781 315.667969 246.472656 314.371094 C 242.886719 311.992188 239.132812 310.03125 235.035156 308.71875 C 234.304688 308.484375 233.597656 308.160156 232.949219 307.902344 C 232.898438 307.46875 232.808594 307.226562 232.851562 307.011719 C 233.796875 302.042969 234.746094 297.078125 235.726562 292.121094 C 235.847656 291.507812 236.101562 290.910156 236.375 290.34375 C 239.28125 284.324219 241.148438 277.972656 242.480469 271.441406 C 242.84375 269.667969 243.28125 267.890625 243.855469 266.175781 C 247.019531 256.710938 249.335938 247.039062 251.34375 237.273438 C 253.109375 228.679688 254.902344 220.089844 256.9375 211.558594 C 259.035156 202.773438 260.507812 193.914062 261.550781 184.949219 C 262.695312 175.140625 264.183594 165.371094 265.613281 155.597656 C 266.984375 146.214844 268.636719 136.871094 269.878906 127.472656 C 272.300781 109.144531 274.523438 90.785156 276.835938 72.441406 C 276.890625 71.992188 277.027344 71.554688 277.175781 70.882812 C 295.558594 76.429688 311.722656 86.167969 328.179688 95.464844 Z M 310.558594 196.015625 C 310.730469 196.023438 310.902344 196.03125 311.074219 196.039062 C 310.949219 196.65625 310.855469 197.277344 310.699219 197.882812 C 308.429688 206.507812 306.289062 215.167969 303.835938 223.742188 C 301.449219 232.089844 298.769531 240.351562 296.144531 248.628906 C 295.574219 250.417969 294.6875 252.101562 293.949219 253.835938 C 293.75 253.761719 293.546875 253.683594 293.347656 253.609375 C 300.34375 234.785156 305.816406 215.511719 310.558594 196.015625 Z M 226.492188 323.320312 C 225.148438 323.675781 224.546875 324.867188 224.085938 325.996094 C 222.746094 329.285156 221.425781 332.589844 220.332031 335.960938 C 219.042969 339.941406 217.996094 344 216.847656 348.027344 C 216.042969 350.863281 216.953125 352.773438 219.050781 354.917969 C 223.699219 359.671875 229.332031 362.691406 235.441406 364.875 C 235.449219 366.097656 235.457031 367.160156 235.464844 368.21875 C 236.824219 368.589844 237.792969 368.171875 238.519531 367.449219 C 239.589844 366.386719 240.757812 366.074219 242.167969 366.476562 C 242.242188 366.496094 242.324219 366.496094 242.40625 366.5 C 243.554688 366.53125 244.699219 366.433594 245.191406 365.1875 C 245.644531 364.050781 245 363.226562 244.152344 362.53125 C 243.976562 362.386719 243.847656 362.179688 243.570312 361.851562 C 243.84375 361.285156 244.148438 360.667969 244.445312 360.050781 C 246.796875 355.136719 249.148438 350.222656 251.503906 345.308594 C 251.777344 344.738281 251.980469 344.117188 252.347656 343.617188 C 253.476562 342.082031 253.238281 340.574219 252.125 339.265625 C 250.960938 337.898438 249.742188 336.449219 248.25 335.5 C 241.980469 331.507812 235.476562 327.921875 228.660156 324.925781 C 227.941406 324.609375 227.359375 323.976562 226.492188 323.320312 Z M 247.3125 341.050781 C 244.25 347.335938 241.367188 353.253906 238.464844 359.203125 C 238.019531 359.105469 237.691406 359.101562 237.425781 358.96875 C 232.777344 356.621094 228.160156 354.214844 224.128906 350.859375 C 222.523438 349.523438 222.554688 349.484375 223.222656 347.445312 C 224.890625 342.355469 226.523438 337.25 228.183594 332.15625 C 228.34375 331.671875 228.578125 331.214844 228.785156 330.726562 C 229.167969 330.851562 229.40625 330.894531 229.605469 331.003906 C 234.304688 333.574219 239.011719 336.128906 243.695312 338.734375 C 244.914062 339.414062 246.054688 340.242188 247.3125 341.050781 Z M 106.566406 318.753906 C 108.605469 319.347656 110.605469 320.171875 112.6875 320.492188 C 118.613281 321.402344 124.570312 322.113281 130.515625 322.871094 C 131.210938 322.960938 131.953125 322.953125 132.632812 322.8125 C 134.878906 322.351562 135.699219 319.96875 133.894531 318.585938 C 132.25 317.332031 132.273438 315.976562 132.441406 314.273438 C 132.914062 309.484375 133.304688 304.6875 133.691406 299.890625 C 133.785156 298.714844 133.660156 297.515625 133.789062 296.34375 C 133.867188 295.621094 134.109375 294.855469 134.480469 294.230469 C 135.410156 292.671875 135.238281 291.585938 133.558594 290.773438 C 132.4375 290.230469 131.195312 289.746094 129.972656 289.636719 C 125.027344 289.199219 120.074219 288.824219 115.113281 288.613281 C 112.757812 288.511719 110.421875 288.753906 108.09375 288 C 106.210938 287.390625 104.921875 288.277344 104.292969 290.183594 C 104.167969 290.558594 104.0625 290.945312 104.019531 291.332031 C 103.125 298.953125 102.625 306.578125 103.765625 314.226562 C 104.050781 316.136719 104.761719 317.710938 106.566406 318.753906 Z M 127.191406 315.960938 C 121.539062 315.265625 116.101562 315.191406 110.773438 314.023438 C 109.550781 313.753906 109.019531 313.101562 109.058594 311.894531 C 109.074219 311.34375 109.070312 310.789062 109.085938 310.238281 C 109.25 305.351562 109.410156 300.46875 109.589844 295.582031 C 109.609375 294.992188 109.714844 294.402344 109.769531 293.945312 C 115.800781 294.585938 121.632812 295.207031 127.539062 295.835938 C 127.507812 296.515625 127.511719 297.0625 127.453125 297.601562 C 126.949219 302.238281 126.65625 306.863281 127.359375 311.519531 C 127.566406 312.875 127.269531 314.304688 127.191406 315.960938 Z M 163.148438 333.503906 C 165.039062 334.160156 168.292969 335.359375 171.597656 336.40625 C 174.074219 337.195312 176.621094 337.773438 179.128906 338.480469 C 180.546875 338.882812 182.027344 339.035156 183.1875 340.214844 C 183.957031 340.996094 185.0625 340.785156 185.867188 339.738281 C 186.765625 338.5625 187.648438 337.277344 188.136719 335.898438 C 190.042969 330.507812 191.054688 324.921875 191.496094 319.222656 C 191.605469 317.820312 192.015625 316.433594 192.035156 315.039062 C 192.058594 312.914062 191.339844 310.964844 189.542969 309.726562 C 188.394531 308.933594 187.042969 308.363281 185.707031 307.917969 C 179.488281 305.859375 173.246094 303.875 167.011719 301.871094 C 163.953125 300.886719 162.25 302.023438 161.730469 305.328125 C 160.675781 312.039062 159.648438 318.75 158.53125 325.449219 C 157.8125 329.773438 158.109375 330.566406 163.148438 333.503906 Z M 187.023438 315.53125 C 185.863281 321.347656 184.753906 326.890625 183.589844 332.707031 C 176.523438 331.566406 169.910156 329.738281 163.234375 327.609375 C 164.109375 324.328125 164.960938 321.378906 165.671875 318.398438 C 166.371094 315.445312 166.933594 312.460938 167.519531 309.652344 C 171.953125 310.785156 176.171875 311.769531 180.332031 312.960938 C 182.511719 313.585938 184.582031 314.582031 187.023438 315.53125 Z M 232.292969 49.640625 C 227.578125 47.476562 223.15625 45.40625 218.695312 43.421875 C 217.039062 42.683594 215.324219 42.050781 213.589844 41.523438 C 199.75 37.335938 185.894531 33.179688 172.042969 29.019531 C 171.460938 28.84375 170.867188 28.714844 170.074219 28.511719 C 170.035156 29.480469 169.976562 30.242188 169.984375 31.007812 C 170.0625 40.417969 170.308594 49.804688 171.691406 59.144531 C 172.453125 64.300781 172.832031 69.515625 173.378906 74.703125 C 174.179688 82.265625 174.347656 89.847656 174.007812 97.4375 C 173.25 114.269531 173.355469 131.085938 174.074219 147.925781 C 175.449219 180.300781 173.789062 212.554688 169.355469 244.664062 C 168.730469 249.195312 168.507812 253.785156 168.175781 258.355469 C 167.71875 264.578125 167.332031 270.808594 166.917969 277.035156 C 166.808594 278.6875 166.703125 280.339844 166.585938 282.160156 C 174.011719 285.910156 182.0625 287.898438 189.886719 290.972656 C 190.125 290.125 190.335938 289.464844 190.492188 288.792969 C 191.859375 282.933594 193.632812 277.210938 196.023438 271.679688 C 196.550781 270.460938 196.824219 269.113281 197.042969 267.796875 C 199 256.023438 200.832031 244.230469 202.871094 232.46875 C 204.691406 221.960938 206.488281 211.433594 208.726562 201.007812 C 211.71875 187.070312 213.6875 172.996094 215.328125 158.859375 C 216.945312 144.886719 218.472656 130.902344 220.199219 116.941406 C 220.78125 112.246094 221.851562 107.609375 222.691406 102.945312 C 224.46875 93.066406 226.242188 83.1875 228.011719 73.308594 C 228.417969 71.050781 228.84375 68.800781 229.1875 66.535156 C 230.054688 60.84375 230.503906 55.078125 232.292969 49.640625 Z M 238.445312 61.355469 C 237.660156 65.785156 236.871094 70.214844 236.085938 74.648438 C 235.492188 70.429688 236.816406 63.328125 238.445312 61.355469 Z M 192.519531 290.144531 C 192.746094 289.09375 192.953125 288.039062 193.199219 286.992188 C 193.425781 286.035156 193.695312 285.085938 193.945312 284.132812 C 194.089844 284.175781 194.234375 284.214844 194.378906 284.253906 C 193.902344 286.25 193.425781 288.246094 192.949219 290.242188 C 192.808594 290.210938 192.664062 290.175781 192.519531 290.144531 Z M 126.035156 33.515625 C 125.882812 35.402344 125.980469 37.308594 126.003906 39.207031 C 126.113281 47.976562 126.144531 56.753906 126.382812 65.523438 C 126.527344 70.808594 126.730469 76.121094 127.375 81.363281 C 128.539062 90.816406 128.859375 100.277344 128.347656 109.765625 C 127.929688 117.535156 128.339844 125.234375 129.304688 132.949219 C 129.910156 137.800781 130.316406 142.714844 130.332031 147.601562 C 130.40625 170.835938 130.394531 194.074219 130.257812 217.3125 C 130.171875 231.378906 129.835938 245.445312 129.554688 259.507812 C 129.5 262.089844 129.171875 264.664062 128.957031 267.460938 C 127.792969 267.335938 126.949219 267.234375 126.105469 267.152344 C 121.386719 266.691406 116.671875 266.222656 111.957031 265.78125 C 111.089844 265.699219 110.21875 265.726562 109.351562 265.667969 C 107.425781 265.535156 107.449219 265.488281 107.128906 263.648438 C 105.351562 253.449219 103.816406 243.199219 101.679688 233.074219 C 98.929688 220.054688 97.109375 206.921875 95.515625 193.730469 C 94.460938 185.023438 93.011719 176.363281 91.765625 167.679688 C 90.609375 159.621094 89.460938 151.5625 88.367188 143.496094 C 86.5625 130.183594 84.964844 116.835938 82.976562 103.550781 C 81.527344 93.859375 79.429688 84.265625 77.90625 74.585938 C 75.316406 58.105469 72.945312 41.59375 70.488281 25.097656 C 70.402344 24.503906 70.410156 23.894531 70.367188 23.214844 C 88.753906 21.855469 106.816406 23.402344 125.027344 26.199219 C 125.695312 28.664062 126.238281 31.011719 126.035156 33.515625 Z M 132.074219 249.789062 C 132.027344 250.976562 131.976562 252.160156 131.925781 253.34375 C 131.757812 253.339844 131.585938 253.335938 131.417969 253.332031 C 131.460938 252.15625 131.507812 250.980469 131.550781 249.804688 C 131.726562 249.800781 131.898438 249.796875 132.074219 249.789062 Z M 324.457031 107.734375 C 320.003906 122.589844 316.070312 137.566406 313.96875 152.960938 C 312.792969 161.589844 311.023438 170.089844 308.902344 178.527344 C 306.109375 189.640625 303.304688 200.75 300.570312 211.875 C 298.761719 219.242188 297.054688 226.632812 295.335938 234.023438 C 291.894531 248.84375 286.976562 263.179688 281.066406 277.183594 C 277.628906 285.335938 273.960938 293.394531 270.429688 301.511719 C 268.128906 306.800781 265.929688 312.132812 263.609375 317.414062 C 263.023438 318.746094 262.152344 319.949219 261.472656 321.113281 C 258.453125 319.90625 255.578125 318.835938 252.773438 317.597656 C 250.617188 316.648438 248.425781 315.667969 246.472656 314.371094 C 242.886719 311.992188 239.132812 310.03125 235.035156 308.71875 C 234.304688 308.484375 233.597656 308.160156 232.949219 307.902344 C 232.898438 307.46875 232.808594 307.226562 232.851562 307.011719 C 233.796875 302.042969 234.746094 297.078125 235.726562 292.121094 C 235.847656 291.507812 236.101562 290.910156 236.375 290.34375 C 239.28125 284.324219 241.148438 277.972656 242.480469 271.441406 C 242.84375 269.667969 243.28125 267.890625 243.855469 266.175781 C 247.019531 256.710938 249.335938 247.039062 251.34375 237.273438 C 253.109375 228.679688 254.902344 220.089844 256.9375 211.558594 C 259.035156 202.773438 260.507812 193.914062 261.550781 184.949219 C 262.695312 175.140625 264.183594 165.371094 265.613281 155.597656 C 266.984375 146.214844 268.636719 136.871094 269.878906 127.472656 C 272.300781 109.144531 274.523438 90.785156 276.835938 72.441406 C 276.890625 71.992188 277.027344 71.554688 277.175781 70.882812 C 295.558594 76.429688 311.722656 86.167969 328.179688 95.464844 C 326.835938 99.886719 325.632812 103.808594 324.457031 107.734375 Z M 311.074219 196.039062 C 310.949219 196.65625 310.855469 197.277344 310.699219 197.882812 C 308.429688 206.507812 306.289062 215.167969 303.835938 223.742188 C 301.449219 232.089844 298.769531 240.351562 296.144531 248.628906 C 295.574219 250.417969 294.6875 252.101562 293.949219 253.835938 C 293.75 253.761719 293.546875 253.683594 293.347656 253.609375 C 300.34375 234.785156 305.816406 215.511719 310.558594 196.015625 C 310.730469 196.023438 310.902344 196.03125 311.074219 196.039062 Z M 238.464844 359.203125 C 238.019531 359.105469 237.691406 359.101562 237.425781 358.96875 C 232.777344 356.621094 228.160156 354.214844 224.128906 350.859375 C 222.523438 349.523438 222.554688 349.484375 223.222656 347.445312 C 224.890625 342.355469 226.523438 337.25 228.183594 332.15625 C 228.34375 331.671875 228.578125 331.214844 228.785156 330.726562 C 229.167969 330.851562 229.40625 330.894531 229.605469 331.003906 C 234.304688 333.574219 239.011719 336.128906 243.695312 338.734375 C 244.914062 339.414062 246.054688 340.242188 247.3125 341.050781 C 244.25 347.335938 241.367188 353.253906 238.464844 359.203125 Z M 110.773438 314.023438 C 109.550781 313.753906 109.019531 313.101562 109.058594 311.894531 C 109.074219 311.34375 109.070312 310.789062 109.085938 310.238281 C 109.25 305.351562 109.410156 300.46875 109.589844 295.582031 C 109.609375 294.992188 109.714844 294.402344 109.769531 293.945312 C 115.800781 294.585938 121.632812 295.207031 127.539062 295.835938 C 127.507812 296.515625 127.511719 297.0625 127.453125 297.601562 C 126.949219 302.238281 126.65625 306.863281 127.359375 311.519531 C 127.566406 312.875 127.269531 314.304688 127.191406 315.960938 C 121.539062 315.265625 116.101562 315.191406 110.773438 314.023438 Z M 183.589844 332.707031 C 176.523438 331.566406 169.910156 329.738281 163.234375 327.609375 C 164.109375 324.328125 164.960938 321.378906 165.671875 318.398438 C 166.371094 315.445312 166.933594 312.460938 167.519531 309.652344 C 171.953125 310.785156 176.171875 311.769531 180.332031 312.960938 C 182.511719 313.585938 184.582031 314.582031 187.023438 315.53125 C 185.863281 321.347656 184.753906 326.890625 183.589844 332.707031 Z M 183.589844 332.707031 " fill-opacity="1" fill-rule="nonzero"/><path fill="#000000" d="M 165.464844 21.515625 C 162.691406 22.074219 162.386719 22.285156 162.070312 24.789062 C 161.832031 26.660156 161.765625 28.566406 161.746094 30.457031 C 161.660156 37.488281 161.617188 44.523438 161.582031 51.554688 C 161.566406 54.160156 161.574219 56.769531 161.65625 59.375 C 162.984375 103.300781 164.71875 147.214844 164.1875 191.175781 C 164.074219 200.4375 163.410156 209.652344 162.53125 218.859375 C 161.300781 231.691406 160.589844 244.550781 160.503906 257.441406 C 160.488281 259.574219 160.226562 261.699219 160.132812 263.828125 C 159.917969 268.800781 159.554688 273.773438 159.617188 278.746094 C 159.644531 281.226562 160.4375 283.703125 160.945312 286.167969 C 161.144531 287.136719 161.753906 287.777344 162.726562 288.214844 C 168.558594 290.820312 174.324219 293.582031 180.191406 296.113281 C 183.226562 297.421875 186.425781 298.359375 189.550781 299.476562 C 192.972656 300.699219 195.863281 297.789062 196.324219 295.039062 C 196.75 292.484375 197.390625 289.945312 198.183594 287.476562 C 203.453125 271.035156 207.21875 254.25 210.097656 237.230469 C 212.207031 224.769531 214.636719 212.347656 217.300781 199.992188 C 220.292969 186.132812 222.0625 172.105469 223.910156 158.082031 C 225.632812 144.996094 227.503906 131.921875 228.257812 118.730469 C 228.484375 114.742188 229.628906 110.953125 230.785156 107.179688 C 232.917969 100.210938 234.726562 93.195312 235.199219 85.871094 C 235.367188 83.285156 236.03125 80.726562 236.535156 78.171875 C 237.308594 74.21875 238.167969 70.28125 238.921875 66.328125 C 239.246094 64.625 239.429688 62.890625 239.625 61.167969 C 240.066406 57.328125 240.394531 53.46875 240.929688 49.640625 C 241.199219 47.722656 240.417969 46.535156 239.042969 45.382812 C 236.101562 42.917969 232.671875 41.28125 229.285156 39.640625 C 221.816406 36.03125 214.328125 32.4375 206.695312 29.1875 C 194.9375 24.179688 182.691406 20.8125 169.976562 19.242188 C 169.820312 19.222656 169.664062 19.210938 169.503906 19.195312 C 166.816406 18.953125 166.816406 18.953125 165.464844 21.515625 Z M 232.292969 49.640625 C 230.503906 55.078125 230.054688 60.84375 229.1875 66.535156 C 228.84375 68.800781 228.417969 71.050781 228.011719 73.308594 C 226.242188 83.1875 224.46875 93.066406 222.691406 102.945312 C 221.851562 107.609375 220.78125 112.246094 220.199219 116.941406 C 218.472656 130.902344 216.945312 144.886719 215.328125 158.859375 C 213.6875 172.996094 211.71875 187.070312 208.726562 201.007812 C 206.488281 211.433594 204.691406 221.960938 202.871094 232.46875 C 200.832031 244.230469 199 256.023438 197.042969 267.796875 C 196.824219 269.113281 196.550781 270.460938 196.023438 271.679688 C 193.632812 277.210938 191.859375 282.933594 190.492188 288.792969 C 190.335938 289.464844 190.125 290.125 189.886719 290.972656 C 182.0625 287.898438 174.011719 285.910156 166.585938 282.160156 C 166.703125 280.339844 166.808594 278.6875 166.917969 277.035156 C 167.332031 270.808594 167.71875 264.578125 168.175781 258.355469 C 168.507812 253.785156 168.730469 249.195312 169.355469 244.664062 C 173.789062 212.554688 175.449219 180.300781 174.074219 147.925781 C 173.355469 131.085938 173.25 114.269531 174.007812 97.4375 C 174.347656 89.847656 174.179688 82.265625 173.378906 74.703125 C 172.832031 69.515625 172.453125 64.300781 171.691406 59.144531 C 170.308594 49.804688 170.0625 40.417969 169.984375 31.007812 C 169.976562 30.242188 170.035156 29.480469 170.074219 28.511719 C 170.867188 28.714844 171.460938 28.84375 172.042969 29.019531 C 185.894531 33.179688 199.746094 37.335938 213.589844 41.523438 C 215.324219 42.050781 217.039062 42.683594 218.695312 43.421875 C 223.15625 45.40625 227.578125 47.476562 232.292969 49.640625 Z M 236.085938 74.648438 C 235.492188 70.429688 236.816406 63.328125 238.445312 61.355469 C 237.660156 65.785156 236.871094 70.214844 236.085938 74.648438 Z M 192.949219 290.242188 C 192.808594 290.210938 192.664062 290.175781 192.519531 290.144531 C 192.746094 289.09375 192.953125 288.039062 193.199219 286.992188 C 193.425781 286.035156 193.695312 285.085938 193.945312 284.132812 C 194.089844 284.175781 194.234375 284.214844 194.378906 284.253906 C 193.902344 286.25 193.425781 288.246094 192.949219 290.242188 Z M 68.71875 15.128906 C 66.824219 13.566406 65.757812 13.75 64.71875 16.308594 C 64.136719 17.738281 63.625 19.34375 63.667969 20.855469 C 63.851562 27.644531 64.085938 34.441406 64.617188 41.210938 C 65.15625 48.058594 65.851562 54.914062 66.855469 61.710938 C 69.039062 76.488281 71.304688 91.253906 74.683594 105.824219 C 75.71875 110.277344 76.261719 114.855469 76.804688 119.40625 C 77.839844 128.117188 78.605469 136.863281 79.695312 145.566406 C 80.660156 153.246094 81.691406 160.933594 83.085938 168.542969 C 86.179688 185.417969 88.796875 202.355469 90.957031 219.378906 C 92.277344 229.796875 94.332031 240.125 96.171875 250.472656 C 97.101562 255.6875 98.289062 260.851562 99.351562 266.039062 C 99.449219 266.503906 99.601562 266.980469 99.566406 267.4375 C 99.378906 270 100.953125 271.203125 103.066406 271.832031 C 104.570312 272.28125 106.152344 272.566406 107.71875 272.710938 C 111.828125 273.085938 115.8125 274.027344 119.808594 275.027344 C 123.398438 275.929688 127.0625 276.5625 130.726562 277.105469 C 132.089844 277.304688 133.589844 277.101562 134.9375 276.742188 C 137.625 276.019531 139.328125 273.792969 138.941406 271.0625 C 138.476562 267.773438 139.128906 264.617188 139.375 261.402344 C 139.777344 256.125 140.320312 250.847656 140.445312 245.5625 C 140.9375 224.789062 141.449219 204.011719 141.65625 183.234375 C 141.925781 156.265625 140.664062 129.351562 138.191406 102.492188 C 137.933594 99.664062 137.914062 96.808594 137.65625 93.976562 C 136.769531 84.222656 135.882812 74.472656 134.882812 64.730469 C 133.613281 52.386719 132.207031 40.058594 130.925781 27.714844 C 130.78125 26.332031 130.914062 24.882812 131.140625 23.5 C 131.582031 20.785156 130.75 18.875 128.316406 17.605469 C 127.6875 17.277344 127.019531 17.003906 126.339844 16.804688 C 119.714844 14.867188 113.007812 13.527344 106.050781 13.550781 C 97.992188 13.578125 89.933594 13.367188 81.875 13.316406 C 79.507812 13.300781 77.117188 13.316406 74.777344 13.613281 C 72.855469 13.859375 70.988281 14.542969 68.71875 15.128906 Z M 125.027344 26.199219 C 125.695312 28.664062 126.238281 31.011719 126.035156 33.515625 C 125.882812 35.402344 125.980469 37.308594 126.003906 39.207031 C 126.113281 47.976562 126.144531 56.753906 126.382812 65.523438 C 126.527344 70.808594 126.730469 76.121094 127.375 81.363281 C 128.539062 90.816406 128.859375 100.277344 128.347656 109.765625 C 127.929688 117.535156 128.339844 125.234375 129.304688 132.949219 C 129.910156 137.800781 130.316406 142.714844 130.332031 147.601562 C 130.40625 170.835938 130.394531 194.074219 130.257812 217.3125 C 130.171875 231.378906 129.835938 245.445312 129.554688 259.507812 C 129.5 262.089844 129.171875 264.664062 128.957031 267.460938 C 127.792969 267.335938 126.949219 267.234375 126.105469 267.152344 C 121.386719 266.691406 116.671875 266.222656 111.957031 265.78125 C 111.089844 265.699219 110.21875 265.726562 109.351562 265.667969 C 107.425781 265.535156 107.449219 265.488281 107.128906 263.648438 C 105.351562 253.449219 103.816406 243.199219 101.679688 233.074219 C 98.929688 220.054688 97.109375 206.921875 95.515625 193.730469 C 94.460938 185.023438 93.011719 176.363281 91.765625 167.679688 C 90.609375 159.621094 89.460938 151.5625 88.367188 143.496094 C 86.5625 130.183594 84.964844 116.835938 82.976562 103.550781 C 81.527344 93.859375 79.429688 84.265625 77.90625 74.585938 C 75.316406 58.105469 72.945312 41.59375 70.488281 25.097656 C 70.402344 24.503906 70.410156 23.894531 70.367188 23.214844 C 88.753906 21.855469 106.816406 23.402344 125.027344 26.199219 Z M 131.550781 249.804688 C 131.726562 249.800781 131.898438 249.796875 132.074219 249.789062 C 132.027344 250.976562 131.976562 252.160156 131.925781 253.34375 C 131.757812 253.339844 131.585938 253.335938 131.417969 253.332031 C 131.460938 252.15625 131.507812 250.980469 131.550781 249.804688 Z M 262.207031 326.8125 C 263.632812 326.238281 264.519531 324.917969 265.222656 323.503906 C 267.449219 319.046875 269.765625 314.632812 271.765625 310.074219 C 276.269531 299.800781 280.527344 289.414062 285.042969 279.144531 C 287.175781 274.300781 289.609375 269.589844 292.019531 264.878906 C 298.539062 252.152344 303.113281 238.722656 306.960938 224.988281 C 313.078125 203.132812 318.160156 181.035156 322.617188 158.792969 C 324.902344 147.40625 326.640625 135.910156 328.871094 124.511719 C 330.519531 116.0625 332.554688 107.6875 334.4375 99.285156 C 334.949219 97.007812 335.0625 94.800781 333.484375 92.847656 C 333.152344 92.4375 332.734375 91.878906 332.292969 91.808594 C 330.765625 91.570312 329.820312 90.488281 328.675781 89.664062 C 326.367188 88.007812 324.105469 86.25 321.660156 84.824219 C 310.445312 78.277344 298.929688 72.351562 286.605469 68.125 C 285.277344 67.667969 284.121094 66.734375 282.800781 66.261719 C 280.496094 65.441406 278.152344 64.71875 275.78125 64.117188 C 272.40625 63.253906 271.433594 63.71875 270.515625 66.984375 C 269.28125 71.386719 267.933594 75.757812 267.429688 80.355469 C 266.371094 90.015625 265.160156 99.664062 263.921875 109.304688 C 263.519531 112.433594 262.980469 115.5625 262.261719 118.632812 C 260.835938 124.726562 259.828125 130.867188 259.214844 137.097656 C 257.070312 158.902344 253.992188 180.578125 249.757812 202.074219 C 247.101562 215.566406 243.890625 228.945312 241.144531 242.421875 C 239.03125 252.796875 237.277344 263.246094 235.308594 273.65625 C 234.472656 278.082031 233.527344 282.484375 232.574219 286.890625 C 232.34375 287.960938 231.890625 288.984375 231.542969 290.035156 C 229.898438 294.980469 228.113281 299.882812 226.65625 304.882812 C 225.460938 308.976562 226.832031 311.15625 230.699219 312.996094 C 235.191406 315.128906 239.554688 317.53125 244.003906 319.75 C 245.976562 320.734375 247.992188 321.667969 250.050781 322.445312 C 254.035156 323.953125 258.0625 325.332031 262.207031 326.8125 Z M 328.179688 95.464844 C 326.835938 99.886719 325.632812 103.808594 324.457031 107.734375 C 320.003906 122.589844 316.070312 137.566406 313.96875 152.960938 C 312.792969 161.589844 311.023438 170.089844 308.902344 178.527344 C 306.109375 189.640625 303.304688 200.75 300.570312 211.875 C 298.761719 219.242188 297.054688 226.632812 295.335938 234.023438 C 291.894531 248.84375 286.976562 263.179688 281.066406 277.183594 C 277.628906 285.335938 273.960938 293.394531 270.429688 301.511719 C 268.128906 306.800781 265.929688 312.132812 263.609375 317.414062 C 263.023438 318.746094 262.152344 319.949219 261.472656 321.113281 C 258.453125 319.90625 255.578125 318.835938 252.773438 317.597656 C 250.617188 316.648438 248.425781 315.667969 246.472656 314.371094 C 242.886719 311.992188 239.132812 310.03125 235.035156 308.71875 C 234.304688 308.484375 233.597656 308.160156 232.949219 307.902344 C 232.898438 307.46875 232.808594 307.226562 232.851562 307.011719 C 233.796875 302.042969 234.746094 297.078125 235.726562 292.121094 C 235.847656 291.507812 236.101562 290.910156 236.375 290.34375 C 239.28125 284.324219 241.148438 277.972656 242.480469 271.441406 C 242.84375 269.667969 243.28125 267.890625 243.855469 266.175781 C 247.019531 256.710938 249.335938 247.039062 251.34375 237.273438 C 253.109375 228.679688 254.902344 220.089844 256.9375 211.558594 C 259.035156 202.773438 260.507812 193.914062 261.550781 184.949219 C 262.695312 175.140625 264.183594 165.371094 265.613281 155.597656 C 266.984375 146.214844 268.636719 136.871094 269.878906 127.472656 C 272.300781 109.144531 274.523438 90.785156 276.835938 72.441406 C 276.890625 71.992188 277.027344 71.554688 277.175781 70.882812 C 295.558594 76.429688 311.722656 86.167969 328.179688 95.464844 Z M 310.558594 196.015625 C 310.730469 196.023438 310.902344 196.03125 311.074219 196.039062 C 310.949219 196.65625 310.855469 197.277344 310.699219 197.882812 C 308.429688 206.507812 306.289062 215.167969 303.835938 223.742188 C 301.449219 232.089844 298.769531 240.351562 296.144531 248.628906 C 295.574219 250.417969 294.6875 252.101562 293.949219 253.835938 C 293.75 253.761719 293.546875 253.683594 293.347656 253.609375 C 300.34375 234.785156 305.816406 215.511719 310.558594 196.015625 Z M 226.492188 323.320312 C 225.148438 323.675781 224.546875 324.867188 224.085938 325.996094 C 222.746094 329.285156 221.425781 332.589844 220.332031 335.960938 C 219.042969 339.941406 217.996094 344 216.847656 348.027344 C 216.042969 350.863281 216.953125 352.773438 219.050781 354.917969 C 223.699219 359.671875 229.332031 362.691406 235.441406 364.875 C 235.449219 366.097656 235.457031 367.160156 235.464844 368.21875 C 236.824219 368.589844 237.792969 368.171875 238.519531 367.449219 C 239.589844 366.386719 240.757812 366.074219 242.167969 366.476562 C 242.242188 366.496094 242.324219 366.496094 242.40625 366.5 C 243.554688 366.53125 244.699219 366.433594 245.191406 365.1875 C 245.644531 364.050781 245 363.226562 244.152344 362.53125 C 243.976562 362.386719 243.847656 362.179688 243.570312 361.851562 C 243.84375 361.285156 244.148438 360.667969 244.445312 360.050781 C 246.796875 355.136719 249.148438 350.222656 251.503906 345.308594 C 251.777344 344.738281 251.980469 344.117188 252.347656 343.617188 C 253.476562 342.082031 253.238281 340.574219 252.125 339.265625 C 250.960938 337.898438 249.742188 336.449219 248.25 335.5 C 241.980469 331.507812 235.476562 327.921875 228.660156 324.925781 C 227.941406 324.609375 227.359375 323.976562 226.492188 323.320312 Z M 247.3125 341.050781 C 244.25 347.335938 241.367188 353.253906 238.464844 359.203125 C 238.019531 359.105469 237.691406 359.101562 237.425781 358.96875 C 232.777344 356.621094 228.160156 354.214844 224.128906 350.859375 C 222.523438 349.523438 222.554688 349.484375 223.222656 347.445312 C 224.890625 342.355469 226.523438 337.25 228.183594 332.15625 C 228.34375 331.671875 228.578125 331.214844 228.785156 330.726562 C 229.167969 330.851562 229.40625 330.894531 229.605469 331.003906 C 234.304688 333.574219 239.011719 336.128906 243.695312 338.734375 C 244.914062 339.414062 246.054688 340.242188 247.3125 341.050781 Z M 106.566406 318.753906 C 108.605469 319.347656 110.605469 320.171875 112.6875 320.492188 C 118.613281 321.402344 124.570312 322.113281 130.515625 322.871094 C 131.210938 322.960938 131.953125 322.953125 132.632812 322.8125 C 134.878906 322.351562 135.699219 319.96875 133.894531 318.585938 C 132.25 317.332031 132.273438 315.976562 132.441406 314.273438 C 132.914062 309.484375 133.304688 304.6875 133.691406 299.890625 C 133.785156 298.714844 133.660156 297.515625 133.789062 296.34375 C 133.867188 295.621094 134.109375 294.855469 134.480469 294.230469 C 135.410156 292.671875 135.238281 291.585938 133.558594 290.773438 C 132.4375 290.230469 131.195312 289.746094 129.972656 289.636719 C 125.027344 289.199219 120.074219 288.824219 115.113281 288.613281 C 112.757812 288.511719 110.421875 288.753906 108.09375 288 C 106.210938 287.390625 104.921875 288.277344 104.292969 290.183594 C 104.167969 290.558594 104.0625 290.945312 104.019531 291.332031 C 103.125 298.953125 102.625 306.578125 103.765625 314.226562 C 104.050781 316.136719 104.761719 317.710938 106.566406 318.753906 Z M 127.191406 315.960938 C 121.539062 315.265625 116.101562 315.191406 110.773438 314.023438 C 109.550781 313.753906 109.019531 313.101562 109.058594 311.894531 C 109.074219 311.34375 109.070312 310.789062 109.085938 310.238281 C 109.25 305.351562 109.410156 300.46875 109.589844 295.582031 C 109.609375 294.992188 109.714844 294.402344 109.769531 293.945312 C 115.800781 294.585938 121.632812 295.207031 127.539062 295.835938 C 127.507812 296.515625 127.511719 297.0625 127.453125 297.601562 C 126.949219 302.238281 126.65625 306.863281 127.359375 311.519531 C 127.566406 312.875 127.269531 314.304688 127.191406 315.960938 Z M 163.148438 333.503906 C 165.039062 334.160156 168.292969 335.359375 171.597656 336.40625 C 174.074219 337.195312 176.621094 337.773438 179.128906 338.480469 C 180.546875 338.882812 182.027344 339.035156 183.1875 340.214844 C 183.957031 340.996094 185.0625 340.785156 185.867188 339.738281 C 186.765625 338.5625 187.648438 337.277344 188.136719 335.898438 C 190.042969 330.507812 191.054688 324.921875 191.496094 319.222656 C 191.605469 317.820312 192.015625 316.433594 192.035156 315.039062 C 192.058594 312.914062 191.339844 310.964844 189.542969 309.726562 C 188.394531 308.933594 187.042969 308.363281 185.707031 307.917969 C 179.488281 305.859375 173.246094 303.875 167.011719 301.871094 C 163.953125 300.886719 162.25 302.023438 161.730469 305.328125 C 160.675781 312.039062 159.648438 318.75 158.53125 325.449219 C 157.8125 329.773438 158.109375 330.566406 163.148438 333.503906 Z M 187.023438 315.53125 C 185.863281 321.347656 184.753906 326.890625 183.589844 332.707031 C 176.523438 331.566406 169.910156 329.738281 163.234375 327.609375 C 164.109375 324.328125 164.960938 321.378906 165.671875 318.398438 C 166.371094 315.445312 166.933594 312.460938 167.519531 309.652344 C 171.953125 310.785156 176.171875 311.769531 180.332031 312.960938 C 182.511719 313.585938 184.582031 314.582031 187.023438 315.53125 Z M 187.023438 315.53125 " fill-opacity="1" fill-rule="nonzero"/></g></g></g></g><g clip-path="url(#67efada404)"><g clip-path="url(#c00a49e226)"><g clip-path="url(#3b56cce259)"><g clip-path="url(#5583a229b0)"><path fill="#ffffff" d="M 232.292969 49.640625 C 227.578125 47.476562 223.15625 45.40625 218.695312 43.421875 C 217.039062 42.683594 215.324219 42.050781 213.589844 41.523438 C 199.75 37.335938 185.894531 33.179688 172.042969 29.019531 C 171.460938 28.84375 170.867188 28.714844 170.074219 28.511719 C 170.035156 29.480469 169.976562 30.242188 169.984375 31.007812 C 170.0625 40.417969 170.308594 49.804688 171.691406 59.144531 C 172.453125 64.300781 172.832031 69.515625 173.378906 74.703125 C 174.179688 82.265625 174.347656 89.847656 174.007812 97.4375 C 173.25 114.269531 173.355469 131.085938 174.074219 147.925781 C 175.449219 180.300781 173.789062 212.554688 169.355469 244.664062 C 168.730469 249.195312 168.507812 253.785156 168.175781 258.355469 C 167.71875 264.578125 167.332031 270.808594 166.917969 277.035156 C 166.808594 278.6875 166.703125 280.339844 166.585938 282.160156 C 174.011719 285.910156 182.0625 287.898438 189.886719 290.972656 C 190.125 290.125 190.335938 289.464844 190.492188 288.792969 C 191.859375 282.933594 193.632812 277.210938 196.023438 271.679688 C 196.550781 270.460938 196.824219 269.113281 197.042969 267.796875 C 199 256.023438 200.832031 244.230469 202.871094 232.46875 C 204.691406 221.960938 206.488281 211.433594 208.726562 201.007812 C 211.71875 187.070312 213.6875 172.996094 215.328125 158.859375 C 216.945312 144.886719 218.472656 130.902344 220.199219 116.941406 C 220.78125 112.246094 221.851562 107.609375 222.691406 102.945312 C 224.46875 93.066406 226.242188 83.1875 228.011719 73.308594 C 228.417969 71.050781 228.84375 68.800781 229.1875 66.535156 C 230.054688 60.84375 230.503906 55.078125 232.292969 49.640625 Z M 238.445312 61.355469 C 237.660156 65.785156 236.871094 70.214844 236.085938 74.648438 C 235.492188 70.429688 236.816406 63.328125 238.445312 61.355469 Z M 192.519531 290.144531 C 192.746094 289.09375 192.953125 288.039062 193.199219 286.992188 C 193.425781 286.035156 193.695312 285.085938 193.945312 284.132812 C 194.089844 284.175781 194.234375 284.214844 194.378906 284.253906 C 193.902344 286.25 193.425781 288.246094 192.949219 290.242188 C 192.808594 290.210938 192.664062 290.175781 192.519531 290.144531 Z M 126.035156 33.515625 C 125.882812 35.402344 125.980469 37.308594 126.003906 39.207031 C 126.113281 47.976562 126.144531 56.753906 126.382812 65.523438 C 126.527344 70.808594 126.730469 76.121094 127.375 81.363281 C 128.539062 90.816406 128.859375 100.277344 128.347656 109.765625 C 127.929688 117.535156 128.339844 125.234375 129.304688 132.949219 C 129.910156 137.800781 130.316406 142.714844 130.332031 147.601562 C 130.40625 170.835938 130.394531 194.074219 130.257812 217.3125 C 130.171875 231.378906 129.835938 245.445312 129.554688 259.507812 C 129.5 262.089844 129.171875 264.664062 128.957031 267.460938 C 127.792969 267.335938 126.949219 267.234375 126.105469 267.152344 C 121.386719 266.691406 116.671875 266.222656 111.957031 265.78125 C 111.089844 265.699219 110.21875 265.726562 109.351562 265.667969 C 107.425781 265.535156 107.449219 265.488281 107.128906 263.648438 C 105.351562 253.449219 103.816406 243.199219 101.679688 233.074219 C 98.929688 220.054688 97.109375 206.921875 95.515625 193.730469 C 94.460938 185.023438 93.011719 176.363281 91.765625 167.679688 C 90.609375 159.621094 89.460938 151.5625 88.367188 143.496094 C 86.5625 130.183594 84.964844 116.835938 82.976562 103.550781 C 81.527344 93.859375 79.429688 84.265625 77.90625 74.585938 C 75.316406 58.105469 72.945312 41.59375 70.488281 25.097656 C 70.402344 24.503906 70.410156 23.894531 70.367188 23.214844 C 88.753906 21.855469 106.816406 23.402344 125.027344 26.199219 C 125.695312 28.664062 126.238281 31.011719 126.035156 33.515625 Z M 132.074219 249.789062 C 132.027344 250.976562 131.976562 252.160156 131.925781 253.34375 C 131.757812 253.339844 131.585938 253.335938 131.417969 253.332031 C 131.460938 252.15625 131.507812 250.980469 131.550781 249.804688 C 131.726562 249.800781 131.898438 249.796875 132.074219 249.789062 Z M 324.457031 107.734375 C 320.003906 122.589844 316.070312 137.566406 313.96875 152.960938 C 312.792969 161.589844 311.023438 170.089844 308.902344 178.527344 C 306.109375 189.640625 303.304688 200.75 300.570312 211.875 C 298.761719 219.242188 297.054688 226.632812 295.335938 234.023438 C 291.894531 248.84375 286.976562 263.179688 281.066406 277.183594 C 277.628906 285.335938 273.960938 293.394531 270.429688 301.511719 C 268.128906 306.800781 265.929688 312.132812 263.609375 317.414062 C 263.023438 318.746094 262.152344 319.949219 261.472656 321.113281 C 258.453125 319.90625 255.578125 318.835938 252.773438 317.597656 C 250.617188 316.648438 248.425781 315.667969 246.472656 314.371094 C 242.886719 311.992188 239.132812 310.03125 235.035156 308.71875 C 234.304688 308.484375 233.597656 308.160156 232.949219 307.902344 C 232.898438 307.46875 232.808594 307.226562 232.851562 307.011719 C 233.796875 302.042969 234.746094 297.078125 235.726562 292.121094 C 235.847656 291.507812 236.101562 290.910156 236.375 290.34375 C 239.28125 284.324219 241.148438 277.972656 242.480469 271.441406 C 242.84375 269.667969 243.28125 267.890625 243.855469 266.175781 C 247.019531 256.710938 249.335938 247.039062 251.34375 237.273438 C 253.109375 228.679688 254.902344 220.089844 256.9375 211.558594 C 259.035156 202.773438 260.507812 193.914062 261.550781 184.949219 C 262.695312 175.140625 264.183594 165.371094 265.613281 155.597656 C 266.984375 146.214844 268.636719 136.871094 269.878906 127.472656 C 272.300781 109.144531 274.523438 90.785156 276.835938 72.441406 C 276.890625 71.992188 277.027344 71.554688 277.175781 70.882812 C 295.558594 76.429688 311.722656 86.167969 328.179688 95.464844 C 326.835938 99.886719 325.632812 103.808594 324.457031 107.734375 Z M 311.074219 196.039062 C 310.949219 196.65625 310.855469 197.277344 310.699219 197.882812 C 308.429688 206.507812 306.289062 215.167969 303.835938 223.742188 C 301.449219 232.089844 298.769531 240.351562 296.144531 248.628906 C 295.574219 250.417969 294.6875 252.101562 293.949219 253.835938 C 293.75 253.761719 293.546875 253.683594 293.347656 253.609375 C 300.34375 234.785156 305.816406 215.511719 310.558594 196.015625 C 310.730469 196.023438 310.902344 196.03125 311.074219 196.039062 Z M 238.464844 359.203125 C 238.019531 359.105469 237.691406 359.101562 237.425781 358.96875 C 232.777344 356.621094 228.160156 354.214844 224.128906 350.859375 C 222.523438 349.523438 222.554688 349.484375 223.222656 347.445312 C 224.890625 342.355469 226.523438 337.25 228.183594 332.15625 C 228.34375 331.671875 228.578125 331.214844 228.785156 330.726562 C 229.167969 330.851562 229.40625 330.894531 229.605469 331.003906 C 234.304688 333.574219 239.011719 336.128906 243.695312 338.734375 C 244.914062 339.414062 246.054688 340.242188 247.3125 341.050781 C 244.25 347.335938 241.367188 353.253906 238.464844 359.203125 Z M 110.773438 314.023438 C 109.550781 313.753906 109.019531 313.101562 109.058594 311.894531 C 109.074219 311.34375 109.070312 310.789062 109.085938 310.238281 C 109.25 305.351562 109.410156 300.46875 109.589844 295.582031 C 109.609375 294.992188 109.714844 294.402344 109.769531 293.945312 C 115.800781 294.585938 121.632812 295.207031 127.539062 295.835938 C 127.507812 296.515625 127.511719 297.0625 127.453125 297.601562 C 126.949219 302.238281 126.65625 306.863281 127.359375 311.519531 C 127.566406 312.875 127.269531 314.304688 127.191406 315.960938 C 121.539062 315.265625 116.101562 315.191406 110.773438 314.023438 Z M 183.589844 332.707031 C 176.523438 331.566406 169.910156 329.738281 163.234375 327.609375 C 164.109375 324.328125 164.960938 321.378906 165.671875 318.398438 C 166.371094 315.445312 166.933594 312.460938 167.519531 309.652344 C 171.953125 310.785156 176.171875 311.769531 180.332031 312.960938 C 182.511719 313.585938 184.582031 314.582031 187.023438 315.53125 C 185.863281 321.347656 184.753906 326.890625 183.589844 332.707031 Z M 183.589844 332.707031 " fill-opacity="1" fill-rule="nonzero"/></g></g></g></g></svg>