<svg xmlns="http://www.w3.org/2000/svg" xmlns:xlink="http://www.w3.org/1999/xlink" width="500" zoomAndPan="magnify" viewBox="0 0 375 374.999991" height="500" preserveAspectRatio="xMidYMid meet" version="1.0"><defs><clipPath id="a84aca9be5"><path d="M 5.457031 28.050781 L 335.601562 28.050781 L 335.601562 363 L 5.457031 363 Z M 5.457031 28.050781 " clip-rule="nonzero"/></clipPath><clipPath id="40d96f988d"><path d="M 170.429688 28.050781 C 79.316406 28.050781 5.457031 102.976562 5.457031 195.402344 C 5.457031 287.824219 79.316406 362.75 170.429688 362.75 C 261.542969 362.75 335.402344 287.824219 335.402344 195.402344 C 335.402344 102.976562 261.542969 28.050781 170.429688 28.050781 " clip-rule="nonzero"/></clipPath><clipPath id="d484e0f693"><path d="M 3 89 L 372 89 L 372 284 L 3 284 Z M 3 89 " clip-rule="nonzero"/></clipPath><clipPath id="775a8fafa2"><path d="M -6.921875 125.824219 L 361.664062 81.445312 L 381.835938 248.988281 L 13.246094 293.363281 Z M -6.921875 125.824219 " clip-rule="nonzero"/></clipPath><clipPath id="0254343254"><path d="M -6.921875 125.824219 L 361.664062 81.445312 L 381.835938 248.988281 L 13.246094 293.363281 Z M -6.921875 125.824219 " clip-rule="nonzero"/></clipPath><clipPath id="1b2df0205c"><path d="M -6.921875 125.824219 L 361.664062 81.445312 L 381.835938 248.988281 L 13.246094 293.363281 Z M -6.921875 125.824219 " clip-rule="nonzero"/></clipPath><clipPath id="d6db0544fd"><path d="M 12 105 L 361 105 L 361 273 L 12 273 Z M 12 105 " clip-rule="nonzero"/></clipPath><clipPath id="3e8b35d951"><path d="M -6.921875 125.824219 L 361.664062 81.445312 L 381.835938 248.988281 L 13.246094 293.363281 Z M -6.921875 125.824219 " clip-rule="nonzero"/></clipPath><clipPath id="8d142f14bd"><path d="M -6.921875 125.824219 L 361.664062 81.445312 L 381.835938 248.988281 L 13.246094 293.363281 Z M -6.921875 125.824219 " clip-rule="nonzero"/></clipPath><clipPath id="4120d9212b"><path d="M -6.921875 125.824219 L 361.664062 81.445312 L 381.835938 248.988281 L 13.246094 293.363281 Z M -6.921875 125.824219 " clip-rule="nonzero"/></clipPath></defs><g clip-path="url(#a84aca9be5)"><g clip-path="url(#40d96f988d)"><path fill="#ffffff" d="M 5.457031 28.050781 L 335.601562 28.050781 L 335.601562 362.625 L 5.457031 362.625 Z M 5.457031 28.050781 " fill-opacity="1" fill-rule="nonzero"/></g></g><g clip-path="url(#d484e0f693)"><g clip-path="url(#775a8fafa2)"><g clip-path="url(#0254343254)"><g clip-path="url(#1b2df0205c)"><path fill="#000000" d="M 287.210938 104.503906 C 289.058594 98.808594 290.917969 94.71875 291.832031 93.25 C 292.671875 91.902344 293.671875 90.71875 293.671875 90.71875 C 294.054688 90.316406 294.433594 89.914062 294.8125 89.507812 C 299.984375 95.871094 304.519531 101.351562 308.242188 105.808594 C 311.066406 109.1875 313.660156 112.390625 317.472656 116.328125 C 324.496094 123.574219 331.671875 130.675781 338.78125 137.835938 C 343.6875 142.777344 342.800781 141.042969 349.964844 147.394531 C 351.550781 148.800781 353.742188 150.769531 357.128906 152.78125 C 358.425781 153.550781 359.710938 154.15625 362.226562 155.324219 C 364.339844 156.304688 367.328125 157.640625 371.019531 159.136719 C 367.21875 162.464844 361.925781 167.554688 356.457031 174.578125 C 356.226562 174.875 354.527344 176.742188 353.1875 178.992188 C 347.023438 189.316406 342.09375 200.246094 337.792969 211.449219 C 334.878906 219.042969 332.054688 226.683594 329.53125 234.414062 C 327.960938 239.222656 327.023438 244.234375 325.828125 249.164062 C 325.644531 249.917969 325.617188 250.707031 325.503906 251.480469 C 325.363281 252.410156 324.800781 252.851562 323.929688 252.769531 C 323.519531 252.730469 322.917969 252.558594 322.734375 252.753906 C 322.121094 253.410156 320.9375 253.558594 320.894531 254.746094 C 320.886719 254.925781 320.6875 255.101562 320.515625 255.386719 C 319.757812 254.917969 319.109375 254.3125 318.132812 254.546875 C 317.914062 254.601562 317.382812 254.042969 317.261719 253.675781 C 316.960938 252.789062 316.847656 251.839844 316.597656 250.933594 C 316.378906 250.144531 316.199219 249.308594 315.796875 248.609375 C 311.367188 240.886719 305.734375 234.039062 300.066406 227.226562 C 297.5 224.140625 294.792969 221.171875 292.183594 218.121094 C 288.625 213.953125 284.472656 210.386719 280.625 206.511719 C 275.714844 201.570312 269.785156 198.140625 263.90625 194.636719 C 258.6875 191.527344 253.320312 188.65625 247.933594 185.839844 C 245.976562 184.816406 243.792969 184.226562 241.6875 183.503906 C 240.582031 183.125 239.414062 182.929688 238.300781 182.570312 C 237.671875 182.371094 237.039062 182.085938 236.507812 181.699219 C 235.152344 180.707031 235.390625 179.289062 236.921875 178.585938 C 238.535156 177.84375 240.144531 177.078125 241.695312 176.214844 C 244.246094 174.789062 246.40625 172.851562 248.507812 170.839844 C 258.585938 161.191406 266.917969 150.246094 273.285156 137.8125 C 275.117188 134.234375 276.914062 129.859375 280.558594 121.136719 C 283.445312 114.230469 285.695312 108.464844 287.210938 104.503906 Z M 298.855469 103.972656 C 299.03125 104.203125 299.207031 104.429688 299.382812 104.65625 C 299.445312 104.585938 299.511719 104.519531 299.574219 104.449219 C 299.320312 104.304688 299.070312 104.160156 298.820312 104.015625 C 298.925781 103.058594 298.636719 102.25 297.859375 101.632812 C 297.726562 102.597656 298.488281 103.207031 298.855469 103.972656 Z M 318.96875 236.808594 L 318.933594 236.773438 C 319.027344 237.347656 319.121094 237.921875 319.214844 238.496094 C 319.347656 238.511719 319.480469 238.523438 319.613281 238.539062 C 320.636719 235.449219 321.3125 232.25 322.328125 229.164062 C 323.339844 226.09375 324.359375 223.023438 325.503906 220 C 326.667969 216.925781 327.933594 213.890625 329.253906 210.878906 C 330.570312 207.863281 331.957031 204.882812 333.398438 201.925781 C 334.816406 199.019531 336.253906 196.121094 337.835938 193.304688 C 339.445312 190.4375 341.214844 187.664062 342.960938 184.878906 C 344.707031 182.09375 346.4375 179.289062 348.320312 176.59375 C 350.171875 173.949219 352.199219 171.429688 354.160156 168.859375 C 356.125 166.289062 358.355469 163.921875 360.382812 161.234375 C 359.785156 160.976562 359.441406 160.785156 359.074219 160.675781 C 353.125 158.9375 347.777344 155.957031 342.5625 152.707031 C 341 151.730469 339.515625 150.664062 338.386719 149.152344 C 337.964844 148.585938 337.371094 148.117188 336.785156 147.707031 C 332.300781 144.566406 328.070312 141.117188 324.121094 137.332031 C 323.296875 136.539062 322.546875 136.175781 321.488281 136.808594 C 320.660156 137.304688 320.035156 136.988281 319.492188 136.257812 C 318.890625 135.453125 318.257812 134.671875 317.570312 133.941406 C 316.46875 132.769531 315.3125 131.652344 314.179688 130.507812 C 312.929688 129.246094 311.539062 128.089844 310.453125 126.699219 C 305.542969 120.40625 301.140625 113.773438 297.394531 106.714844 C 297.1875 106.320312 296.90625 105.957031 296.449219 105.257812 C 295.59375 107.992188 294.828125 110.308594 294.140625 112.652344 C 289.191406 129.492188 281.210938 144.785156 270.371094 158.5625 C 263.511719 167.277344 255.253906 174.3125 244.816406 178.511719 C 244.613281 178.59375 244.464844 178.820312 244.121094 179.125 C 244.882812 179.316406 245.414062 179.457031 245.949219 179.578125 C 253.769531 181.332031 261 184.414062 267.546875 189.074219 C 270.089844 190.882812 272.699219 192.605469 275.339844 194.269531 C 281.109375 197.90625 286.511719 202.011719 291.558594 206.601562 C 295.703125 210.367188 299.257812 214.640625 302.710938 219.027344 C 305.996094 223.203125 309.023438 227.535156 311.402344 232.285156 C 312.96875 235.417969 314.359375 238.636719 315.835938 241.8125 C 316.078125 242.332031 316.195312 242.96875 317.078125 243.203125 C 317.285156 242.378906 317.445312 241.628906 317.664062 240.898438 C 318.082031 239.53125 318.53125 238.171875 318.96875 236.808594 Z M 262.0625 160.917969 C 263.25 160.84375 263.824219 160.164062 264.355469 159.453125 C 265.042969 158.535156 265.574219 157.449219 266.40625 156.691406 C 268.203125 155.050781 268.746094 152.8125 269.601562 150.699219 C 268.289062 152.3125 267.203125 154.070312 266.007812 155.75 C 264.796875 157.453125 263.46875 159.082031 262.0625 160.917969 Z M 336.046875 138.695312 C 336.121094 138.578125 336.195312 138.464844 336.269531 138.351562 C 334.546875 136.625 332.808594 134.910156 331.101562 133.167969 C 329.40625 131.433594 327.792969 129.609375 325.84375 128.128906 C 325.878906 128.457031 326 128.703125 326.179688 128.894531 C 328.847656 131.726562 331.511719 134.566406 334.214844 137.363281 C 334.734375 137.898438 335.433594 138.253906 336.046875 138.695312 Z M 290.5 98.597656 C 288.722656 103.859375 287.066406 108.761719 285.410156 113.667969 C 286.992188 111.429688 290.617188 100.660156 290.5 98.597656 Z M 337.773438 140.332031 C 337.6875 140.417969 337.601562 140.5 337.519531 140.582031 C 338.835938 141.835938 340.136719 143.109375 341.480469 144.335938 C 341.925781 144.742188 342.449219 145.085938 342.984375 145.367188 C 343.253906 145.507812 343.628906 145.4375 344.28125 145.484375 C 341.910156 143.605469 339.839844 141.96875 337.773438 140.332031 Z M 364.496094 162.542969 C 363.777344 162.488281 363.441406 162.773438 363.378906 163.742188 C 363.902344 163.179688 364.199219 162.863281 364.496094 162.542969 Z M 325.0625 127.355469 C 325.128906 127.304688 325.199219 127.257812 325.265625 127.207031 C 325.148438 127.035156 325.03125 126.863281 324.917969 126.691406 C 324.84375 126.742188 324.769531 126.796875 324.695312 126.847656 C 324.816406 127.015625 324.941406 127.1875 325.0625 127.355469 Z M 166.703125 184.316406 C 165.714844 185.304688 164.742188 186.371094 163.671875 187.324219 C 159.179688 191.335938 154.578125 195.230469 150.15625 199.316406 C 139.484375 209.175781 130.5625 220.472656 122.726562 232.691406 C 115.84375 243.414062 110.855469 255.011719 106.289062 266.828125 C 105.363281 269.21875 104.417969 271.601562 103.449219 273.976562 C 103.179688 274.644531 102.859375 275.3125 102.453125 275.902344 C 101.644531 277.078125 101.078125 278.3125 101.042969 279.761719 C 101.039062 279.964844 100.882812 280.160156 100.75 280.472656 C 100.441406 280.324219 100.183594 280.195312 99.671875 279.945312 C 100.492188 279.53125 100.898438 279.058594 100.753906 278.292969 C 100.714844 278.097656 100.878906 277.871094 100.929688 277.65625 C 101.554688 275.128906 102.378906 272.675781 102.707031 270.046875 C 103 267.714844 103.917969 265.417969 104.804688 263.203125 C 107.019531 257.671875 109.261719 252.148438 111.714844 246.722656 C 113.222656 243.390625 115.164062 240.257812 116.859375 237.011719 C 119.210938 232.507812 122.128906 228.367188 125.003906 224.203125 C 126.808594 221.589844 128.765625 219.085938 130.65625 216.53125 C 131.050781 216 131.449219 215.472656 131.695312 214.769531 C 131.480469 214.933594 131.238281 215.074219 131.054688 215.269531 C 126.921875 219.617188 123.613281 224.578125 120.414062 229.617188 C 118.925781 231.964844 117.492188 234.351562 115.96875 236.671875 C 112.160156 242.46875 109.035156 248.625 106.226562 254.941406 C 104.710938 258.351562 103.296875 261.8125 101.972656 265.300781 C 100.734375 268.578125 99.675781 271.925781 98.539062 275.242188 C 98.46875 275.453125 98.320312 275.714844 98.386719 275.878906 C 98.835938 277.015625 97.78125 277.800781 97.734375 278.863281 C 97.6875 279.933594 97.195312 280.992188 96.839844 282.035156 C 96.484375 283.066406 95.554688 283.410156 94.746094 282.683594 C 93.886719 281.910156 93.152344 280.976562 92.484375 280.023438 C 88.132812 273.820312 83.835938 267.578125 79.476562 261.378906 C 77.054688 257.9375 73.878906 255.175781 70.914062 252.234375 C 65.613281 246.972656 60.21875 241.804688 54.867188 236.59375 C 54.46875 236.203125 54.09375 235.792969 53.699219 235.394531 C 53.140625 234.835938 52.972656 234.269531 53.863281 233.679688 C 53.273438 233.203125 52.808594 232.816406 52.332031 232.449219 C 42.136719 224.570312 30.800781 218.765625 18.820312 214.160156 C 15.390625 212.839844 11.886719 211.710938 8.394531 210.5625 C 7.132812 210.148438 5.808594 209.9375 4.511719 209.632812 C 4.351562 209.59375 4.148438 209.585938 4.039062 209.484375 C 3.65625 209.132812 3.027344 208.753906 3.015625 208.367188 C 3.003906 207.953125 3.492188 207.34375 3.914062 207.136719 C 4.859375 206.675781 5.875 206.25 6.902344 206.117188 C 8.046875 205.972656 8.820312 205.386719 9.667969 204.730469 C 14.554688 200.929688 19.535156 197.253906 24.375 193.398438 C 40.890625 180.242188 54.578125 164.691406 64.207031 145.785156 C 67.808594 138.707031 69.871094 131.152344 70.75 123.269531 C 70.761719 123.15625 70.773438 123.046875 70.792969 122.9375 C 70.941406 122.078125 70.699219 121 71.597656 120.511719 C 72.605469 119.960938 73.703125 119.457031 74.941406 119.734375 C 75.207031 119.792969 75.480469 119.832031 75.753906 119.839844 C 77.195312 119.859375 78.347656 120.351562 78.96875 121.746094 C 78.992188 121.796875 79.023438 121.84375 79.046875 121.894531 C 82.929688 130.320312 88.683594 137.527344 94.097656 144.953125 C 97.84375 150.085938 101.535156 155.277344 105.910156 159.898438 C 112.503906 166.863281 119.808594 173 128.46875 177.25 C 136.644531 181.261719 145.304688 183.371094 154.511719 182.867188 C 157.679688 182.691406 160.863281 182.742188 164.039062 182.730469 C 165.0625 182.726562 166.066406 182.894531 166.703125 184.316406 Z M 94.257812 272.117188 C 94.652344 271.152344 94.9375 270.492188 95.195312 269.824219 C 96.597656 266.183594 97.871094 262.488281 99.402344 258.90625 C 104.199219 247.710938 109.839844 236.976562 116.964844 227.046875 C 123.503906 217.929688 130.976562 209.726562 139.824219 202.785156 C 145.484375 198.347656 151.050781 193.789062 156.652344 189.277344 C 157.0625 188.945312 157.425781 188.566406 158.097656 187.949219 C 156.84375 187.96875 155.988281 188.050781 155.144531 187.980469 C 150.59375 187.609375 146.035156 187.25 141.492188 186.796875 C 136.351562 186.28125 131.398438 185.046875 126.71875 182.785156 C 121.941406 180.472656 117.347656 177.855469 113.039062 174.75 C 112.734375 174.53125 112.363281 174.40625 112.023438 174.234375 C 111.960938 174.355469 111.898438 174.472656 111.839844 174.589844 C 113.746094 175.960938 115.652344 177.332031 117.730469 178.828125 C 116.429688 179.066406 116.414062 179.097656 115.585938 178.691406 C 114.4375 178.125 113.363281 177.375 112.171875 176.9375 C 109.5625 175.988281 107.328125 174.492188 105.308594 172.628906 C 100.300781 168.003906 95.671875 163.027344 91.582031 157.574219 C 85.691406 149.710938 80.535156 141.371094 75.730469 132.808594 C 75.5 132.394531 75.230469 132.003906 74.980469 131.601562 C 74.480469 132.484375 74.28125 133.324219 74.136719 134.175781 C 73.042969 140.710938 70.988281 146.914062 67.875 152.78125 C 63.867188 160.339844 59.1875 167.453125 53.753906 174.0625 C 48.78125 180.105469 43.398438 185.773438 37.035156 190.363281 C 32.0625 193.945312 26.886719 197.25 21.742188 200.578125 C 19.742188 201.871094 17.546875 202.867188 15.484375 204.066406 C 14.519531 204.628906 13.339844 204.953125 12.632812 206.1875 C 13.285156 206.363281 13.804688 206.53125 14.332031 206.648438 C 18.46875 207.570312 22.484375 208.871094 26.351562 210.617188 C 27.660156 211.207031 28.988281 211.761719 30.289062 212.367188 C 31.035156 212.710938 31.757812 213.097656 32.472656 213.496094 C 33.308594 213.96875 34.074219 214.730469 34.960938 214.894531 C 35.925781 215.070312 36.527344 215.621094 37.238281 216.113281 C 37.925781 216.589844 38.632812 217.027344 39.34375 217.46875 C 41.460938 218.792969 43.671875 219.988281 45.691406 221.449219 C 49.429688 224.160156 53.152344 226.910156 56.707031 229.855469 C 61.632812 233.933594 66.449219 238.152344 71.21875 242.414062 C 75.253906 246.023438 78.941406 249.972656 82.152344 254.347656 C 82.476562 254.785156 83.015625 255.402344 82.902344 255.761719 C 82.589844 256.746094 83.210938 257.203125 83.664062 257.804688 C 86.355469 261.355469 89.050781 264.902344 91.71875 268.46875 C 92.546875 269.574219 93.296875 270.734375 94.257812 272.117188 Z M 318.929688 236.773438 C 319.28125 236.210938 319.632812 235.652344 319.246094 234.917969 C 319.15625 235.546875 319.0625 236.179688 318.96875 236.808594 C 318.96875 236.808594 318.933594 236.773438 318.929688 236.773438 Z M 318.96875 236.808594 C 318.53125 238.171875 318.082031 239.53125 317.664062 240.898438 C 317.445312 241.628906 317.285156 242.378906 317.078125 243.203125 C 316.195312 242.96875 316.078125 242.332031 315.835938 241.8125 C 314.359375 238.636719 312.96875 235.417969 311.402344 232.285156 C 309.023438 227.535156 305.996094 223.203125 302.710938 219.027344 C 299.257812 214.640625 295.703125 210.367188 291.558594 206.601562 C 286.511719 202.011719 281.109375 197.90625 275.339844 194.269531 C 272.699219 192.605469 270.089844 190.882812 267.546875 189.074219 C 261 184.414062 253.769531 181.332031 245.949219 179.578125 C 245.414062 179.457031 244.882812 179.316406 244.121094 179.125 C 244.464844 178.820312 244.613281 178.59375 244.816406 178.511719 C 255.253906 174.3125 263.511719 167.277344 270.371094 158.5625 C 281.210938 144.785156 289.191406 129.492188 294.140625 112.652344 C 294.828125 110.308594 295.59375 107.992188 296.449219 105.257812 C 296.90625 105.957031 297.1875 106.320312 297.394531 106.714844 C 301.140625 113.773438 305.542969 120.40625 310.453125 126.699219 C 311.539062 128.089844 312.929688 129.246094 314.179688 130.507812 C 315.3125 131.652344 316.46875 132.769531 317.570312 133.941406 C 318.257812 134.671875 318.890625 135.453125 319.492188 136.257812 C 320.035156 136.988281 320.660156 137.304688 321.488281 136.808594 C 322.546875 136.175781 323.296875 136.539062 324.121094 137.332031 C 328.070312 141.117188 332.300781 144.566406 336.785156 147.707031 C 337.371094 148.117188 337.964844 148.585938 338.386719 149.152344 C 339.515625 150.664062 341 151.730469 342.5625 152.707031 C 347.777344 155.957031 353.125 158.9375 359.074219 160.675781 C 359.441406 160.785156 359.785156 160.976562 360.382812 161.234375 C 358.355469 163.921875 356.125 166.289062 354.160156 168.859375 C 352.199219 171.429688 350.171875 173.949219 348.320312 176.59375 C 346.4375 179.289062 344.707031 182.09375 342.960938 184.878906 C 341.214844 187.664062 339.445312 190.4375 337.835938 193.304688 C 336.253906 196.121094 334.816406 199.019531 333.398438 201.925781 C 331.957031 204.882812 330.570312 207.863281 329.253906 210.878906 C 327.933594 213.890625 326.667969 216.925781 325.503906 220 C 324.359375 223.023438 323.339844 226.09375 322.328125 229.164062 C 321.3125 232.25 320.636719 235.449219 319.613281 238.539062 C 319.480469 238.523438 319.347656 238.511719 319.214844 238.496094 C 319.121094 237.921875 319.027344 237.347656 318.929688 236.773438 C 319.28125 236.210938 319.632812 235.652344 319.246094 234.917969 C 319.15625 235.546875 319.0625 236.179688 318.96875 236.808594 Z M 95.195312 269.824219 C 96.597656 266.183594 97.871094 262.488281 99.402344 258.90625 C 104.199219 247.710938 109.839844 236.976562 116.964844 227.046875 C 123.503906 217.929688 130.976562 209.726562 139.824219 202.785156 C 145.484375 198.347656 151.050781 193.789062 156.652344 189.277344 C 157.0625 188.945312 157.425781 188.566406 158.097656 187.949219 C 156.84375 187.96875 155.988281 188.050781 155.144531 187.980469 C 150.59375 187.609375 146.035156 187.25 141.492188 186.796875 C 136.351562 186.28125 131.398438 185.046875 126.71875 182.785156 C 121.941406 180.472656 117.347656 177.855469 113.039062 174.75 C 112.734375 174.53125 112.363281 174.40625 112.023438 174.234375 C 111.960938 174.355469 111.898438 174.472656 111.839844 174.589844 C 113.746094 175.960938 115.652344 177.332031 117.730469 178.828125 C 116.429688 179.066406 116.414062 179.097656 115.585938 178.691406 C 114.4375 178.125 113.363281 177.375 112.171875 176.9375 C 109.5625 175.988281 107.328125 174.492188 105.308594 172.628906 C 100.300781 168.003906 95.671875 163.027344 91.582031 157.574219 C 85.691406 149.710938 80.535156 141.371094 75.730469 132.808594 C 75.5 132.394531 75.230469 132.003906 74.980469 131.601562 C 74.480469 132.484375 74.28125 133.324219 74.136719 134.175781 C 73.042969 140.710938 70.988281 146.914062 67.875 152.78125 C 63.867188 160.339844 59.1875 167.453125 53.753906 174.0625 C 48.78125 180.105469 43.398438 185.773438 37.035156 190.363281 C 32.0625 193.945312 26.886719 197.25 21.742188 200.578125 C 19.742188 201.871094 17.546875 202.867188 15.484375 204.066406 C 14.519531 204.628906 13.339844 204.953125 12.632812 206.1875 C 13.285156 206.363281 13.804688 206.53125 14.332031 206.648438 C 18.46875 207.570312 22.484375 208.871094 26.351562 210.617188 C 27.660156 211.207031 28.988281 211.761719 30.289062 212.367188 C 31.035156 212.710938 31.757812 213.097656 32.472656 213.496094 C 33.308594 213.96875 34.074219 214.730469 34.960938 214.894531 C 35.925781 215.070312 36.527344 215.621094 37.238281 216.113281 C 37.925781 216.589844 38.632812 217.027344 39.34375 217.46875 C 41.460938 218.792969 43.671875 219.988281 45.691406 221.449219 C 49.429688 224.160156 53.152344 226.910156 56.707031 229.855469 C 61.632812 233.933594 66.449219 238.152344 71.21875 242.414062 C 75.253906 246.023438 78.941406 249.972656 82.152344 254.347656 C 82.476562 254.785156 83.015625 255.402344 82.902344 255.761719 C 82.589844 256.746094 83.210938 257.203125 83.664062 257.804688 C 86.355469 261.355469 89.050781 264.902344 91.71875 268.46875 C 92.546875 269.574219 93.296875 270.734375 94.257812 272.117188 C 94.652344 271.152344 94.9375 270.492188 95.195312 269.824219 Z M 95.195312 269.824219 " fill-opacity="1" fill-rule="nonzero"/><path fill="#000000" d="M 287.210938 104.503906 C 289.058594 98.808594 290.917969 94.71875 291.832031 93.25 C 292.671875 91.902344 293.671875 90.71875 293.671875 90.71875 C 294.054688 90.316406 294.433594 89.914062 294.8125 89.507812 C 299.984375 95.871094 304.519531 101.351562 308.242188 105.808594 C 311.066406 109.1875 313.660156 112.390625 317.472656 116.328125 C 324.496094 123.574219 331.671875 130.675781 338.78125 137.835938 C 343.6875 142.777344 342.800781 141.042969 349.964844 147.394531 C 351.550781 148.800781 353.742188 150.769531 357.128906 152.78125 C 358.425781 153.550781 359.710938 154.15625 362.226562 155.324219 C 364.339844 156.304688 367.328125 157.640625 371.019531 159.136719 C 367.21875 162.464844 361.925781 167.554688 356.457031 174.578125 C 356.226562 174.875 354.527344 176.742188 353.1875 178.992188 C 347.023438 189.316406 342.09375 200.246094 337.792969 211.449219 C 334.878906 219.042969 332.054688 226.683594 329.53125 234.414062 C 327.960938 239.222656 327.023438 244.234375 325.828125 249.164062 C 325.644531 249.917969 325.617188 250.707031 325.503906 251.480469 C 325.363281 252.410156 324.800781 252.851562 323.929688 252.769531 C 323.519531 252.730469 322.917969 252.558594 322.734375 252.753906 C 322.121094 253.410156 320.9375 253.558594 320.894531 254.746094 C 320.886719 254.925781 320.6875 255.101562 320.515625 255.386719 C 319.757812 254.917969 319.109375 254.3125 318.132812 254.546875 C 317.914062 254.601562 317.382812 254.042969 317.261719 253.675781 C 316.960938 252.789062 316.847656 251.839844 316.597656 250.933594 C 316.378906 250.144531 316.199219 249.308594 315.796875 248.609375 C 311.367188 240.886719 305.734375 234.039062 300.066406 227.226562 C 297.5 224.140625 294.792969 221.171875 292.183594 218.121094 C 288.625 213.953125 284.472656 210.386719 280.625 206.511719 C 275.714844 201.570312 269.785156 198.140625 263.90625 194.636719 C 258.6875 191.527344 253.320312 188.65625 247.933594 185.839844 C 245.976562 184.816406 243.792969 184.226562 241.6875 183.503906 C 240.582031 183.125 239.414062 182.929688 238.300781 182.570312 C 237.671875 182.371094 237.039062 182.085938 236.507812 181.699219 C 235.152344 180.707031 235.390625 179.289062 236.921875 178.585938 C 238.535156 177.84375 240.144531 177.078125 241.695312 176.214844 C 244.246094 174.789062 246.40625 172.851562 248.507812 170.839844 C 258.585938 161.191406 266.917969 150.246094 273.285156 137.8125 C 275.117188 134.234375 276.914062 129.859375 280.558594 121.136719 C 283.445312 114.230469 285.695312 108.464844 287.210938 104.503906 Z M 298.855469 103.972656 C 299.03125 104.203125 299.207031 104.429688 299.382812 104.65625 C 299.445312 104.585938 299.511719 104.519531 299.574219 104.449219 C 299.320312 104.304688 299.070312 104.160156 298.820312 104.015625 C 298.925781 103.058594 298.636719 102.25 297.859375 101.632812 C 297.726562 102.597656 298.488281 103.207031 298.855469 103.972656 Z M 318.96875 236.808594 L 318.933594 236.773438 C 319.027344 237.347656 319.121094 237.921875 319.214844 238.496094 C 319.347656 238.511719 319.480469 238.523438 319.613281 238.539062 C 320.636719 235.449219 321.3125 232.25 322.328125 229.164062 C 323.339844 226.09375 324.359375 223.023438 325.503906 220 C 326.667969 216.925781 327.933594 213.890625 329.253906 210.878906 C 330.570312 207.863281 331.957031 204.882812 333.398438 201.925781 C 334.816406 199.019531 336.253906 196.121094 337.835938 193.304688 C 339.445312 190.4375 341.214844 187.664062 342.960938 184.878906 C 344.707031 182.09375 346.4375 179.289062 348.320312 176.59375 C 350.171875 173.949219 352.199219 171.429688 354.160156 168.859375 C 356.125 166.289062 358.355469 163.921875 360.382812 161.234375 C 359.785156 160.976562 359.441406 160.785156 359.074219 160.675781 C 353.125 158.9375 347.777344 155.957031 342.5625 152.707031 C 341 151.730469 339.515625 150.664062 338.386719 149.152344 C 337.964844 148.585938 337.371094 148.117188 336.785156 147.707031 C 332.300781 144.566406 328.070312 141.117188 324.121094 137.332031 C 323.296875 136.539062 322.546875 136.175781 321.488281 136.808594 C 320.660156 137.304688 320.035156 136.988281 319.492188 136.257812 C 318.890625 135.453125 318.257812 134.671875 317.570312 133.941406 C 316.46875 132.769531 315.3125 131.652344 314.179688 130.507812 C 312.929688 129.246094 311.539062 128.089844 310.453125 126.699219 C 305.542969 120.40625 301.140625 113.773438 297.394531 106.714844 C 297.1875 106.320312 296.90625 105.957031 296.449219 105.257812 C 295.59375 107.992188 294.828125 110.308594 294.140625 112.652344 C 289.191406 129.492188 281.210938 144.785156 270.371094 158.5625 C 263.511719 167.277344 255.253906 174.3125 244.816406 178.511719 C 244.613281 178.59375 244.464844 178.820312 244.121094 179.125 C 244.882812 179.316406 245.414062 179.457031 245.949219 179.578125 C 253.769531 181.332031 261 184.414062 267.546875 189.074219 C 270.089844 190.882812 272.699219 192.605469 275.339844 194.269531 C 281.109375 197.90625 286.511719 202.011719 291.558594 206.601562 C 295.703125 210.367188 299.257812 214.640625 302.710938 219.027344 C 305.996094 223.203125 309.023438 227.535156 311.402344 232.285156 C 312.96875 235.417969 314.359375 238.636719 315.835938 241.8125 C 316.078125 242.332031 316.195312 242.96875 317.078125 243.203125 C 317.285156 242.378906 317.445312 241.628906 317.664062 240.898438 C 318.082031 239.53125 318.53125 238.171875 318.96875 236.808594 Z M 262.0625 160.917969 C 263.25 160.84375 263.824219 160.164062 264.355469 159.453125 C 265.042969 158.535156 265.574219 157.449219 266.40625 156.691406 C 268.203125 155.050781 268.746094 152.8125 269.601562 150.699219 C 268.289062 152.3125 267.203125 154.070312 266.007812 155.75 C 264.796875 157.453125 263.46875 159.082031 262.0625 160.917969 Z M 336.046875 138.695312 C 336.121094 138.578125 336.195312 138.464844 336.269531 138.351562 C 334.546875 136.625 332.808594 134.910156 331.101562 133.167969 C 329.40625 131.433594 327.792969 129.609375 325.84375 128.128906 C 325.878906 128.457031 326 128.703125 326.179688 128.894531 C 328.847656 131.726562 331.511719 134.566406 334.214844 137.363281 C 334.734375 137.898438 335.433594 138.253906 336.046875 138.695312 Z M 290.5 98.597656 C 288.722656 103.859375 287.066406 108.761719 285.410156 113.667969 C 286.992188 111.429688 290.617188 100.660156 290.5 98.597656 Z M 337.773438 140.332031 C 337.6875 140.417969 337.601562 140.5 337.519531 140.582031 C 338.835938 141.835938 340.136719 143.109375 341.480469 144.335938 C 341.925781 144.742188 342.449219 145.085938 342.984375 145.367188 C 343.253906 145.507812 343.628906 145.4375 344.28125 145.484375 C 341.910156 143.605469 339.839844 141.96875 337.773438 140.332031 Z M 364.496094 162.542969 C 363.777344 162.488281 363.441406 162.773438 363.378906 163.742188 C 363.902344 163.179688 364.199219 162.863281 364.496094 162.542969 Z M 325.0625 127.355469 C 325.128906 127.304688 325.199219 127.257812 325.265625 127.207031 C 325.148438 127.035156 325.03125 126.863281 324.917969 126.691406 C 324.84375 126.742188 324.769531 126.796875 324.695312 126.847656 C 324.816406 127.015625 324.941406 127.1875 325.0625 127.355469 Z M 166.703125 184.316406 C 165.714844 185.304688 164.742188 186.371094 163.671875 187.324219 C 159.179688 191.335938 154.578125 195.230469 150.15625 199.316406 C 139.484375 209.175781 130.5625 220.472656 122.726562 232.691406 C 115.84375 243.414062 110.855469 255.011719 106.289062 266.828125 C 105.363281 269.21875 104.417969 271.601562 103.449219 273.976562 C 103.179688 274.644531 102.859375 275.3125 102.453125 275.902344 C 101.644531 277.078125 101.078125 278.3125 101.042969 279.761719 C 101.039062 279.964844 100.882812 280.160156 100.75 280.472656 C 100.441406 280.324219 100.183594 280.195312 99.671875 279.945312 C 100.492188 279.53125 100.898438 279.058594 100.753906 278.292969 C 100.714844 278.097656 100.878906 277.871094 100.929688 277.65625 C 101.554688 275.128906 102.378906 272.675781 102.707031 270.046875 C 103 267.714844 103.917969 265.417969 104.804688 263.203125 C 107.019531 257.671875 109.261719 252.148438 111.714844 246.722656 C 113.222656 243.390625 115.164062 240.257812 116.859375 237.011719 C 119.210938 232.507812 122.128906 228.367188 125.003906 224.203125 C 126.808594 221.589844 128.765625 219.085938 130.65625 216.53125 C 131.050781 216 131.449219 215.472656 131.695312 214.769531 C 131.480469 214.933594 131.238281 215.074219 131.054688 215.269531 C 126.921875 219.617188 123.613281 224.578125 120.414062 229.617188 C 118.925781 231.964844 117.492188 234.351562 115.96875 236.671875 C 112.160156 242.46875 109.035156 248.625 106.226562 254.941406 C 104.710938 258.351562 103.296875 261.8125 101.972656 265.300781 C 100.734375 268.578125 99.675781 271.925781 98.539062 275.242188 C 98.46875 275.453125 98.320312 275.714844 98.386719 275.878906 C 98.835938 277.015625 97.78125 277.800781 97.734375 278.863281 C 97.6875 279.933594 97.195312 280.992188 96.839844 282.035156 C 96.484375 283.066406 95.554688 283.410156 94.746094 282.683594 C 93.886719 281.910156 93.152344 280.976562 92.484375 280.023438 C 88.132812 273.820312 83.835938 267.578125 79.476562 261.378906 C 77.054688 257.9375 73.878906 255.175781 70.914062 252.234375 C 65.613281 246.972656 60.21875 241.804688 54.867188 236.59375 C 54.46875 236.203125 54.09375 235.792969 53.699219 235.394531 C 53.140625 234.835938 52.972656 234.269531 53.863281 233.679688 C 53.273438 233.203125 52.808594 232.816406 52.332031 232.449219 C 42.136719 224.570312 30.800781 218.765625 18.820312 214.160156 C 15.390625 212.839844 11.886719 211.710938 8.394531 210.5625 C 7.132812 210.148438 5.808594 209.9375 4.511719 209.632812 C 4.351562 209.59375 4.148438 209.585938 4.039062 209.484375 C 3.65625 209.132812 3.027344 208.753906 3.015625 208.367188 C 3.003906 207.953125 3.492188 207.34375 3.914062 207.136719 C 4.859375 206.675781 5.875 206.25 6.902344 206.117188 C 8.046875 205.972656 8.820312 205.386719 9.667969 204.730469 C 14.554688 200.929688 19.535156 197.253906 24.375 193.398438 C 40.890625 180.242188 54.578125 164.691406 64.207031 145.785156 C 67.808594 138.707031 69.871094 131.152344 70.75 123.269531 C 70.761719 123.15625 70.773438 123.046875 70.792969 122.9375 C 70.941406 122.078125 70.699219 121 71.597656 120.511719 C 72.605469 119.960938 73.703125 119.457031 74.941406 119.734375 C 75.207031 119.792969 75.480469 119.832031 75.753906 119.839844 C 77.195312 119.859375 78.347656 120.351562 78.96875 121.746094 C 78.992188 121.796875 79.023438 121.84375 79.046875 121.894531 C 82.929688 130.320312 88.683594 137.527344 94.097656 144.953125 C 97.84375 150.085938 101.535156 155.277344 105.910156 159.898438 C 112.503906 166.863281 119.808594 173 128.46875 177.25 C 136.644531 181.261719 145.304688 183.371094 154.511719 182.867188 C 157.679688 182.691406 160.863281 182.742188 164.039062 182.730469 C 165.0625 182.726562 166.066406 182.894531 166.703125 184.316406 Z M 94.257812 272.117188 C 94.652344 271.152344 94.9375 270.492188 95.195312 269.824219 C 96.597656 266.183594 97.871094 262.488281 99.402344 258.90625 C 104.199219 247.710938 109.839844 236.976562 116.964844 227.046875 C 123.503906 217.929688 130.976562 209.726562 139.824219 202.785156 C 145.484375 198.347656 151.050781 193.789062 156.652344 189.277344 C 157.0625 188.945312 157.425781 188.566406 158.097656 187.949219 C 156.84375 187.96875 155.988281 188.050781 155.144531 187.980469 C 150.59375 187.609375 146.035156 187.25 141.492188 186.796875 C 136.351562 186.28125 131.398438 185.046875 126.71875 182.785156 C 121.941406 180.472656 117.347656 177.855469 113.039062 174.75 C 112.734375 174.53125 112.363281 174.40625 112.023438 174.234375 C 111.960938 174.355469 111.898438 174.472656 111.839844 174.589844 C 113.746094 175.960938 115.652344 177.332031 117.730469 178.828125 C 116.429688 179.066406 116.414062 179.097656 115.585938 178.691406 C 114.4375 178.125 113.363281 177.375 112.171875 176.9375 C 109.5625 175.988281 107.328125 174.492188 105.308594 172.628906 C 100.300781 168.003906 95.671875 163.027344 91.582031 157.574219 C 85.691406 149.710938 80.535156 141.371094 75.730469 132.808594 C 75.5 132.394531 75.230469 132.003906 74.980469 131.601562 C 74.480469 132.484375 74.28125 133.324219 74.136719 134.175781 C 73.042969 140.710938 70.988281 146.914062 67.875 152.78125 C 63.867188 160.339844 59.1875 167.453125 53.753906 174.0625 C 48.78125 180.105469 43.398438 185.773438 37.035156 190.363281 C 32.0625 193.945312 26.886719 197.25 21.742188 200.578125 C 19.742188 201.871094 17.546875 202.867188 15.484375 204.066406 C 14.519531 204.628906 13.339844 204.953125 12.632812 206.1875 C 13.285156 206.363281 13.804688 206.53125 14.332031 206.648438 C 18.46875 207.570312 22.484375 208.871094 26.351562 210.617188 C 27.660156 211.207031 28.988281 211.761719 30.289062 212.367188 C 31.035156 212.710938 31.757812 213.097656 32.472656 213.496094 C 33.308594 213.96875 34.074219 214.730469 34.960938 214.894531 C 35.925781 215.070312 36.527344 215.621094 37.238281 216.113281 C 37.925781 216.589844 38.632812 217.027344 39.34375 217.46875 C 41.460938 218.792969 43.671875 219.988281 45.691406 221.449219 C 49.429688 224.160156 53.152344 226.910156 56.707031 229.855469 C 61.632812 233.933594 66.449219 238.152344 71.21875 242.414062 C 75.253906 246.023438 78.941406 249.972656 82.152344 254.347656 C 82.476562 254.785156 83.015625 255.402344 82.902344 255.761719 C 82.589844 256.746094 83.210938 257.203125 83.664062 257.804688 C 86.355469 261.355469 89.050781 264.902344 91.71875 268.46875 C 92.546875 269.574219 93.296875 270.734375 94.257812 272.117188 Z M 318.929688 236.773438 C 319.28125 236.210938 319.632812 235.652344 319.246094 234.917969 C 319.15625 235.546875 319.0625 236.179688 318.96875 236.808594 C 318.96875 236.808594 318.933594 236.773438 318.929688 236.773438 Z M 318.929688 236.773438 " fill-opacity="1" fill-rule="nonzero"/></g></g></g></g><g clip-path="url(#d6db0544fd)"><g clip-path="url(#3e8b35d951)"><g clip-path="url(#8d142f14bd)"><g clip-path="url(#4120d9212b)"><path fill="#ffffff" d="M 318.96875 236.808594 C 318.53125 238.171875 318.082031 239.53125 317.664062 240.898438 C 317.445312 241.628906 317.285156 242.378906 317.078125 243.203125 C 316.195312 242.96875 316.078125 242.332031 315.835938 241.8125 C 314.359375 238.636719 312.96875 235.417969 311.402344 232.285156 C 309.023438 227.535156 305.996094 223.203125 302.710938 219.027344 C 299.257812 214.640625 295.703125 210.367188 291.558594 206.601562 C 286.511719 202.011719 281.109375 197.90625 275.339844 194.269531 C 272.699219 192.605469 270.089844 190.882812 267.546875 189.074219 C 261 184.414062 253.769531 181.332031 245.949219 179.578125 C 245.414062 179.457031 244.882812 179.316406 244.121094 179.125 C 244.464844 178.820312 244.613281 178.59375 244.816406 178.511719 C 255.253906 174.3125 263.511719 167.277344 270.371094 158.5625 C 281.210938 144.785156 289.191406 129.492188 294.140625 112.652344 C 294.828125 110.308594 295.59375 107.992188 296.449219 105.257812 C 296.90625 105.957031 297.1875 106.320312 297.394531 106.714844 C 301.140625 113.773438 305.542969 120.40625 310.453125 126.699219 C 311.539062 128.089844 312.929688 129.246094 314.179688 130.507812 C 315.3125 131.652344 316.46875 132.769531 317.570312 133.941406 C 318.257812 134.671875 318.890625 135.453125 319.492188 136.257812 C 320.035156 136.988281 320.660156 137.304688 321.488281 136.808594 C 322.546875 136.175781 323.296875 136.539062 324.121094 137.332031 C 328.070312 141.117188 332.300781 144.566406 336.785156 147.707031 C 337.371094 148.117188 337.964844 148.585938 338.386719 149.152344 C 339.515625 150.664062 341 151.730469 342.5625 152.707031 C 347.777344 155.957031 353.125 158.9375 359.074219 160.675781 C 359.441406 160.785156 359.785156 160.976562 360.382812 161.234375 C 358.355469 163.921875 356.125 166.289062 354.160156 168.859375 C 352.199219 171.429688 350.171875 173.949219 348.320312 176.59375 C 346.4375 179.289062 344.707031 182.09375 342.960938 184.878906 C 341.214844 187.664062 339.445312 190.4375 337.835938 193.304688 C 336.253906 196.121094 334.816406 199.019531 333.398438 201.925781 C 331.957031 204.882812 330.570312 207.863281 329.253906 210.878906 C 327.933594 213.890625 326.667969 216.925781 325.503906 220 C 324.359375 223.023438 323.339844 226.09375 322.328125 229.164062 C 321.3125 232.25 320.636719 235.449219 319.613281 238.539062 C 319.480469 238.523438 319.347656 238.511719 319.214844 238.496094 C 319.121094 237.921875 319.027344 237.347656 318.929688 236.773438 C 319.28125 236.210938 319.632812 235.652344 319.246094 234.917969 C 319.15625 235.546875 319.0625 236.179688 318.96875 236.808594 Z M 95.195312 269.824219 C 96.597656 266.183594 97.871094 262.488281 99.402344 258.90625 C 104.199219 247.710938 109.839844 236.976562 116.964844 227.046875 C 123.503906 217.929688 130.976562 209.726562 139.824219 202.785156 C 145.484375 198.347656 151.050781 193.789062 156.652344 189.277344 C 157.0625 188.945312 157.425781 188.566406 158.097656 187.949219 C 156.84375 187.96875 155.988281 188.050781 155.144531 187.980469 C 150.59375 187.609375 146.035156 187.25 141.492188 186.796875 C 136.351562 186.28125 131.398438 185.046875 126.71875 182.785156 C 121.941406 180.472656 117.347656 177.855469 113.039062 174.75 C 112.734375 174.53125 112.363281 174.40625 112.023438 174.234375 C 111.960938 174.355469 111.898438 174.472656 111.839844 174.589844 C 113.746094 175.960938 115.652344 177.332031 117.730469 178.828125 C 116.429688 179.066406 116.414062 179.097656 115.585938 178.691406 C 114.4375 178.125 113.363281 177.375 112.171875 176.9375 C 109.5625 175.988281 107.328125 174.492188 105.308594 172.628906 C 100.300781 168.003906 95.671875 163.027344 91.582031 157.574219 C 85.691406 149.710938 80.535156 141.371094 75.730469 132.808594 C 75.5 132.394531 75.230469 132.003906 74.980469 131.601562 C 74.480469 132.484375 74.28125 133.324219 74.136719 134.175781 C 73.042969 140.710938 70.988281 146.914062 67.875 152.78125 C 63.867188 160.339844 59.1875 167.453125 53.753906 174.0625 C 48.78125 180.105469 43.398438 185.773438 37.035156 190.363281 C 32.0625 193.945312 26.886719 197.25 21.742188 200.578125 C 19.742188 201.871094 17.546875 202.867188 15.484375 204.066406 C 14.519531 204.628906 13.339844 204.953125 12.632812 206.1875 C 13.285156 206.363281 13.804688 206.53125 14.332031 206.648438 C 18.46875 207.570312 22.484375 208.871094 26.351562 210.617188 C 27.660156 211.207031 28.988281 211.761719 30.289062 212.367188 C 31.035156 212.710938 31.757812 213.097656 32.472656 213.496094 C 33.308594 213.96875 34.074219 214.730469 34.960938 214.894531 C 35.925781 215.070312 36.527344 215.621094 37.238281 216.113281 C 37.925781 216.589844 38.632812 217.027344 39.34375 217.46875 C 41.460938 218.792969 43.671875 219.988281 45.691406 221.449219 C 49.429688 224.160156 53.152344 226.910156 56.707031 229.855469 C 61.632812 233.933594 66.449219 238.152344 71.21875 242.414062 C 75.253906 246.023438 78.941406 249.972656 82.152344 254.347656 C 82.476562 254.785156 83.015625 255.402344 82.902344 255.761719 C 82.589844 256.746094 83.210938 257.203125 83.664062 257.804688 C 86.355469 261.355469 89.050781 264.902344 91.71875 268.46875 C 92.546875 269.574219 93.296875 270.734375 94.257812 272.117188 C 94.652344 271.152344 94.9375 270.492188 95.195312 269.824219 Z M 95.195312 269.824219 " fill-opacity="1" fill-rule="nonzero"/></g></g></g></g></svg>