<svg xmlns="http://www.w3.org/2000/svg" xmlns:xlink="http://www.w3.org/1999/xlink" width="500" zoomAndPan="magnify" viewBox="0 0 375 374.999991" height="500" preserveAspectRatio="xMidYMid meet" version="1.0"><defs><clipPath id="091da781e6"><path d="M 4.058594 8.117188 L 371.242188 8.117188 L 371.242188 375 L 4.058594 375 Z M 4.058594 8.117188 " clip-rule="nonzero"/></clipPath><clipPath id="289c3d813a"><path d="M 37 94 L 338 94 L 338 291 L 37 291 Z M 37 94 " clip-rule="nonzero"/></clipPath><clipPath id="dd54a1b31a"><path d="M 30.453125 276.511719 L 331.902344 88.28125 L 344.390625 108.285156 L 42.941406 296.515625 Z M 30.453125 276.511719 " clip-rule="nonzero"/></clipPath><clipPath id="dd1dee8aad"><path d="M 30.453125 276.511719 L 331.902344 88.28125 L 344.390625 108.285156 L 42.941406 296.515625 Z M 30.453125 276.511719 " clip-rule="nonzero"/></clipPath><clipPath id="e3c03f51f9"><path d="M 30.453125 276.511719 L 331.902344 88.28125 L 344.390625 108.285156 L 42.941406 296.515625 Z M 30.453125 276.511719 " clip-rule="nonzero"/></clipPath></defs><g clip-path="url(#091da781e6)"><path fill="#000000" d="M 187.5 375.101562 C 86.296875 375.101562 3.957031 292.761719 3.957031 191.554688 C 3.957031 90.347656 86.296875 8.011719 187.5 8.011719 C 288.703125 8.011719 371.042969 90.347656 371.042969 191.554688 C 371.042969 292.761719 288.703125 375.101562 187.5 375.101562 Z M 187.5 26.113281 C 96.277344 26.113281 22.058594 100.332031 22.058594 191.554688 C 22.058594 282.78125 96.277344 356.996094 187.5 356.996094 C 278.722656 356.996094 352.9375 282.78125 352.9375 191.554688 C 352.9375 100.332031 278.722656 26.113281 187.5 26.113281 Z M 187.5 26.113281 " fill-opacity="1" fill-rule="nonzero"/></g><path fill="#000000" d="M 243.621094 151.664062 C 243.621094 149.277344 241.292969 146.511719 239.75 145.570312 C 238.3125 144.699219 235.410156 144.085938 233.085938 144.6875 L 144.609375 167.804688 C 141.21875 168.691406 138.855469 171.753906 138.855469 175.261719 L 138.855469 182.078125 L 138.820312 182.085938 L 138.820312 246.746094 C 140.300781 250.941406 140.515625 255.875 139.09375 261.183594 C 135.035156 276.324219 119.472656 288.597656 104.332031 288.597656 C 89.1875 288.597656 80.207031 276.324219 84.261719 261.183594 C 88.320312 246.039062 103.886719 233.765625 119.023438 233.765625 C 119.222656 233.765625 119.410156 233.792969 119.605469 233.800781 L 118.472656 141.535156 C 118.472656 135.726562 122.378906 130.648438 127.996094 129.15625 L 247.402344 97.46875 C 251.257812 96.449219 255.351562 97.277344 258.496094 99.695312 C 261.648438 102.125 263.496094 105.871094 263.496094 109.847656 L 262.351562 220.523438 C 263.335938 224.332031 263.328125 228.671875 262.089844 233.28125 C 258.03125 248.421875 242.472656 260.695312 227.332031 260.695312 C 212.1875 260.695312 203.207031 248.421875 207.265625 233.28125 C 211.320312 218.136719 226.882812 205.863281 242.023438 205.863281 C 242.402344 205.863281 242.761719 205.910156 243.140625 205.921875 Z M 243.621094 151.664062 " fill-opacity="1" fill-rule="nonzero"/><g clip-path="url(#289c3d813a)"><g clip-path="url(#dd54a1b31a)"><g clip-path="url(#dd1dee8aad)"><g clip-path="url(#e3c03f51f9)"><path fill="#000000" d="M 319.167969 96.234375 L 43.1875 268.5625 C 37.742188 271.960938 36.125 279.195312 39.574219 284.71875 C 43.023438 290.238281 50.230469 291.960938 55.675781 288.5625 L 331.660156 116.234375 C 337.101562 112.835938 338.71875 105.601562 335.269531 100.078125 C 331.824219 94.554688 324.613281 92.832031 319.167969 96.234375 Z M 319.167969 96.234375 " fill-opacity="1" fill-rule="nonzero"/></g></g></g></g></svg>