<svg xmlns="http://www.w3.org/2000/svg" xmlns:xlink="http://www.w3.org/1999/xlink" width="500" zoomAndPan="magnify" viewBox="0 0 375 374.999991" height="500" preserveAspectRatio="xMidYMid meet" version="1.0"><defs><clipPath id="4a02955a31"><path d="M 2.976562 5.953125 L 371.976562 5.953125 L 371.976562 374.953125 L 2.976562 374.953125 Z M 2.976562 5.953125 " clip-rule="nonzero"/></clipPath></defs><g clip-path="url(#4a02955a31)"><path fill="#000000" d="M 187.328125 374.753906 C 85.621094 374.753906 2.875 292.007812 2.875 190.296875 C 2.875 88.589844 85.621094 5.847656 187.328125 5.847656 C 289.03125 5.847656 371.777344 88.589844 371.777344 190.296875 C 371.777344 292.007812 289.03125 374.753906 187.328125 374.753906 Z M 187.328125 24.039062 C 95.652344 24.039062 21.066406 98.625 21.066406 190.296875 C 21.066406 281.976562 95.652344 356.558594 187.328125 356.558594 C 279 356.558594 353.582031 281.976562 353.582031 190.296875 C 353.582031 98.625 279 24.039062 187.328125 24.039062 Z M 187.328125 24.039062 " fill-opacity="1" fill-rule="nonzero"/></g><path fill="#000000" d="M 243.726562 150.210938 C 243.726562 147.8125 241.386719 145.03125 239.832031 144.085938 C 238.390625 143.210938 235.472656 142.59375 233.140625 143.199219 L 144.222656 166.429688 C 140.816406 167.320312 138.4375 170.398438 138.4375 173.925781 L 138.4375 180.773438 L 138.40625 180.785156 L 138.40625 245.761719 C 139.894531 249.980469 140.109375 254.9375 138.679688 260.273438 C 134.601562 275.488281 118.960938 287.820312 103.746094 287.820312 C 88.527344 287.820312 79.503906 275.488281 83.578125 260.273438 C 87.65625 245.050781 103.296875 232.71875 118.507812 232.71875 C 118.710938 232.71875 118.902344 232.746094 119.09375 232.753906 L 117.957031 140.03125 C 117.957031 134.191406 121.882812 129.089844 127.527344 127.59375 L 247.527344 95.746094 C 251.398438 94.722656 255.511719 95.550781 258.675781 97.984375 C 261.84375 100.425781 263.699219 104.191406 263.699219 108.1875 L 262.546875 219.410156 C 263.539062 223.238281 263.527344 227.597656 262.285156 232.230469 C 258.207031 247.445312 242.570312 259.78125 227.355469 259.78125 C 212.136719 259.78125 203.109375 247.445312 207.1875 232.230469 C 211.261719 217.011719 226.90625 204.679688 242.121094 204.679688 C 242.5 204.679688 242.863281 204.722656 243.242188 204.738281 Z M 243.726562 150.210938 " fill-opacity="1" fill-rule="nonzero"/></svg>